<svg width="199" height="60" viewBox="0 0 199 60" fill="none" xmlns="http://www.w3.org/2000/svg">
<path d="M191.258 57.5793H8.04256C4.32959 57.5793 1.3208 54.5705 1.3208 50.8575V7.45418C1.3208 3.74121 4.32959 0.732422 8.04256 0.732422H191.258C194.971 0.732422 197.98 3.74121 197.98 7.45418V50.8575C197.98 54.5705 194.971 57.5793 191.258 57.5793Z" fill="black"/>
<mask id="mask0_72_106" style="mask-type:luminance" maskUnits="userSpaceOnUse" x="0" y="0" width="199" height="60">
<path d="M0.584717 0H198.709V59.1799H0.584717V0Z" fill="white"/>
</mask>
<g mask="url(#mask0_72_106)">
<path d="M8.03911 1.46848C4.73869 1.46848 2.05355 4.15363 2.05355 7.45404V50.8574C2.05355 54.1578 4.73869 56.843 8.03911 56.843H191.259C194.559 56.843 197.244 54.1578 197.244 50.8574V7.45404C197.244 4.15363 194.559 1.46848 191.259 1.46848H8.03911ZM191.259 58.3153H8.03911C3.92781 58.3153 0.584717 54.9687 0.584717 50.8574V7.45404C0.584717 3.34275 3.92781 -0.00390625 8.03911 -0.00390625H191.259C195.37 -0.00390625 198.713 3.34275 198.713 7.45404V50.8574C198.713 54.9687 195.37 58.3153 191.259 58.3153Z" fill="#A7A9AB"/>
</g>
<path d="M69.2889 15.2609L68.5349 12.8994C68.35 12.3161 68.1935 11.6653 68.0512 11.1105H68.0228C67.8841 11.6653 67.7383 12.3303 67.5711 12.8994L66.8314 15.2609H69.2889ZM66.5468 16.5803L65.7217 19.2975H63.915L66.9878 9.71631H69.2178L72.3297 19.2975H70.4554L69.5876 16.5803" fill="white"/>
<path d="M74.9438 12.3765L76.0677 15.8832C76.2668 16.4949 76.4055 17.0497 76.5336 17.6187H76.5762C76.7043 17.0497 76.8608 16.5091 77.0457 15.8832L78.1553 12.3765H79.9869L77.3444 19.2974H75.6267L73.0518 12.3765" fill="white"/>
<path d="M85.261 15.9118C84.0234 15.8976 82.8426 16.1537 82.8426 17.2064C82.8426 17.8893 83.2836 18.2022 83.8384 18.2022C84.5462 18.2022 85.0476 17.747 85.2148 17.2491C85.261 17.1211 85.261 16.993 85.261 16.865V15.9118ZM86.9646 17.6332C86.9646 18.2591 86.993 18.8708 87.0784 19.2941H85.4993L85.3748 18.5294H85.3286C84.9196 19.0664 84.1941 19.4506 83.2836 19.4506C81.8895 19.4506 81.1106 18.4441 81.1106 17.3913C81.1106 15.6558 82.6577 14.7631 85.2148 14.7773V14.6635C85.2148 14.2083 85.0334 13.4543 83.81 13.4543C83.1271 13.4543 82.4158 13.6677 81.9464 13.9664L81.6049 12.8284C82.1171 12.5154 83.0133 12.2202 84.1087 12.2202C86.3244 12.2202 86.9646 13.625 86.9646 15.1472" fill="white"/>
<path d="M89.4365 12.3766H91.1827V19.2976H89.4365V12.3766ZM90.3007 11.3808C89.721 11.3808 89.3369 10.954 89.3369 10.4419C89.3369 9.90132 89.7317 9.48877 90.3185 9.48877C90.9124 9.48877 91.2823 9.90132 91.2965 10.4419C91.2965 10.954 90.9124 11.3808 90.3185 11.3808" fill="white"/>
<path d="M93.697 19.2975H95.4468V9.18994H93.697V19.2975Z" fill="white"/>
<path d="M101.642 15.9118C100.405 15.8976 99.224 16.1537 99.224 17.2064C99.224 17.8893 99.665 18.2022 100.22 18.2022C100.931 18.2022 101.429 17.747 101.6 17.2491C101.642 17.1211 101.642 16.993 101.642 16.865V15.9118ZM103.346 17.6332C103.346 18.2591 103.374 18.8708 103.46 19.2941H101.884L101.756 18.5294H101.713C101.301 19.0664 100.575 19.4506 99.665 19.4506C98.2744 19.4506 97.4919 18.4441 97.4919 17.3913C97.4919 15.6558 99.0426 14.7631 101.6 14.7773V14.6635C101.6 14.2083 101.415 13.4543 100.191 13.4543C99.5085 13.4543 98.7972 13.6677 98.3313 13.9664L97.9899 12.8284C98.502 12.5154 99.3947 12.2202 100.49 12.2202C102.706 12.2202 103.346 13.625 103.346 15.1472" fill="white"/>
<path d="M107.567 16.4381C107.567 16.5803 107.582 16.7226 107.61 16.8506C107.795 17.5619 108.407 18.074 109.157 18.074C110.253 18.074 110.921 17.2063 110.921 15.8014C110.921 14.578 110.338 13.5822 109.171 13.5822C108.46 13.5822 107.809 14.0943 107.624 14.8625C107.596 14.9906 107.567 15.1471 107.567 15.3178V16.4381ZM105.818 9.18994H107.567V13.3261H107.596C108.023 12.6575 108.773 12.2201 109.812 12.2201C111.504 12.2201 112.71 13.6249 112.696 15.7303C112.696 18.2163 111.12 19.454 109.556 19.454C108.659 19.454 107.866 19.1125 107.368 18.259H107.34L107.254 19.2975H105.761C105.789 18.828 105.818 18.0598 105.818 17.3627" fill="white"/>
<path d="M114.755 19.2975H116.501V9.18994H114.755V19.2975Z" fill="white"/>
<path d="M123.308 15.1045C123.323 14.4644 123.038 13.4116 121.875 13.4116C120.794 13.4116 120.339 14.3932 120.268 15.1045H123.308ZM120.268 16.3244C120.31 17.5763 121.292 18.1169 122.401 18.1169C123.209 18.1169 123.778 17.9888 124.318 17.8039L124.574 18.9953C123.977 19.2549 123.152 19.4363 122.16 19.4363C119.912 19.4363 118.589 18.06 118.589 15.9439C118.589 14.0234 119.755 12.2202 121.975 12.2202C124.219 12.2202 124.959 14.066 124.959 15.5882C124.959 15.9154 124.93 16.1715 124.902 16.3244" fill="white"/>
<path d="M133.64 18.188C134.632 18.188 135.329 17.2206 135.329 15.8158C135.329 14.7347 134.846 13.4828 133.654 13.4828C132.417 13.4828 131.919 14.692 131.919 15.8443C131.919 17.178 132.587 18.188 133.622 18.188H133.64ZM133.583 19.4541C131.634 19.4541 130.115 18.1169 130.115 15.887C130.115 13.6108 131.606 12.2202 133.697 12.2202C135.756 12.2202 137.136 13.6677 137.136 15.7731C137.136 18.316 135.344 19.4541 133.597 19.4541" fill="white"/>
<path d="M139.192 14.4359C139.192 13.6393 139.167 12.9706 139.138 12.3731H140.657L140.742 13.4116H140.785C141.098 12.8711 141.852 12.2202 143.004 12.2202C144.21 12.2202 145.462 12.9991 145.462 15.1899V19.2941H143.712V15.389C143.712 14.3932 143.342 13.6393 142.392 13.6393C141.695 13.6393 141.212 14.1372 141.027 14.6635C140.97 14.8058 140.941 15.0192 140.941 15.2183V19.2941H139.192" fill="white"/>
<path d="M153.517 10.5981V12.3728H155.178V13.6816H153.517V16.7224C153.517 17.576 153.745 18.0027 154.41 18.0027C154.723 18.0027 154.893 17.9885 155.093 17.9316L155.121 19.2511C154.865 19.3542 154.396 19.436 153.855 19.436C153.204 19.436 152.678 19.2226 152.351 18.8705C151.967 18.4722 151.796 17.832 151.796 16.9216V13.6816H150.814V12.3728H151.796V11.0818" fill="white"/>
<path d="M157.124 9.18994H158.873V13.3119H158.902C159.115 12.9847 159.414 12.7144 159.77 12.5295C160.125 12.3339 160.534 12.2201 160.975 12.2201C162.156 12.2201 163.39 12.9989 163.39 15.2182V19.2975H161.644V15.4031C161.644 14.4073 161.274 13.6391 160.307 13.6391C159.627 13.6391 159.144 14.0943 158.944 14.6207C158.888 14.7772 158.873 14.9621 158.873 15.1471V19.2975H157.124" fill="white"/>
<path d="M170.155 15.1045C170.169 14.4644 169.884 13.4116 168.718 13.4116C167.637 13.4116 167.185 14.3932 167.114 15.1045H170.155ZM167.114 16.3244C167.156 17.5763 168.134 18.1169 169.244 18.1169C170.055 18.1169 170.624 17.9888 171.161 17.8039L171.421 18.9953C170.823 19.2549 169.998 19.4363 169.002 19.4363C166.758 19.4363 165.435 18.06 165.435 15.9439C165.435 14.0234 166.602 12.2202 168.817 12.2202C171.061 12.2202 171.801 14.066 171.801 15.5882C171.801 15.9154 171.773 16.1715 171.744 16.3244" fill="white"/>
<path d="M44.8024 28.587C44.7562 23.8462 48.6826 21.538 48.864 21.4313C46.6412 18.1878 43.1949 17.7468 41.9822 17.7113C39.0907 17.409 36.2847 19.4468 34.8123 19.4468C33.3079 19.4468 31.0353 17.7433 28.592 17.7931C25.4409 17.8428 22.4962 19.6673 20.8815 22.4947C17.5527 28.2669 20.0351 36.7456 23.2288 41.4117C24.8292 43.6949 26.6928 46.2485 29.1361 46.156C31.5261 46.0564 32.4188 44.6339 35.3031 44.6339C38.1625 44.6339 39.0018 46.156 41.4949 46.0991C44.0591 46.0564 45.6738 43.8052 47.2137 41.497C49.0631 38.8795 49.8029 36.301 49.8313 36.1694C49.7709 36.1481 44.8522 34.2703 44.8024 28.587Z" fill="white"/>
<path d="M40.0937 14.6455C41.3776 13.038 42.2632 10.8472 42.0142 8.62793C40.1542 8.71329 37.8282 9.91538 36.4875 11.4873C35.3031 12.8744 34.2398 15.147 34.5172 17.2809C36.6084 17.4373 38.7529 16.2281 40.0937 14.6455Z" fill="white"/>
<path d="M73.6456 37.6384L71.9954 32.542C71.8212 32.0227 71.494 30.7958 71.0103 28.8681H70.9534C70.7613 29.6968 70.4484 30.9238 70.0251 32.542L68.4034 37.6384H73.6456ZM79.3502 45.7792H76.0178L74.1933 40.0462H67.8557L66.1166 45.7792H62.873L69.1609 26.2612H73.0375" fill="white"/>
<path d="M92.3242 38.684C92.3242 37.3112 92.0148 36.1838 91.3959 35.2947C90.7202 34.37 89.8133 33.9041 88.6752 33.9041C87.9035 33.9041 87.1993 34.1637 86.5769 34.6723C85.951 35.188 85.5384 35.8566 85.3428 36.6888C85.2468 37.0729 85.2005 37.3894 85.2005 37.6384V39.9857C85.2005 41.0099 85.5135 41.8742 86.1395 42.5784C86.769 43.2861 87.5834 43.6346 88.5863 43.6346C89.7671 43.6346 90.6846 43.183 91.3355 42.2725C91.997 41.3656 92.3242 40.1706 92.3242 38.684ZM95.5108 38.5666C95.5108 40.9602 94.8635 42.8558 93.569 44.2428C92.4095 45.4805 90.9692 46.0957 89.2549 46.0957C87.3985 46.0957 86.0683 45.4271 85.2575 44.097H85.2005V51.5123H82.0708V36.3367C82.0708 34.8323 82.0353 33.2888 81.957 31.7026H84.7062L84.8805 33.9361H84.9409C85.983 32.2539 87.5656 31.4146 89.6888 31.4146C91.3462 31.4146 92.7367 32.0725 93.8428 33.3848C94.9524 34.7007 95.5108 36.4256 95.5108 38.5666Z" fill="white"/>
<path d="M108.51 38.684C108.51 37.3112 108.2 36.1838 107.582 35.2947C106.906 34.37 105.999 33.9041 104.861 33.9041C104.089 33.9041 103.389 34.1637 102.763 34.6723C102.133 35.188 101.728 35.8566 101.536 36.6888C101.436 37.0729 101.39 37.3894 101.39 37.6384V39.9857C101.39 41.0099 101.699 41.8742 102.325 42.5784C102.955 43.2861 103.769 43.6346 104.776 43.6346C105.953 43.6346 106.87 43.183 107.525 42.2725C108.179 41.3656 108.51 40.1706 108.51 38.684ZM111.693 38.5666C111.693 40.9602 111.049 42.8558 109.755 44.2428C108.595 45.4805 107.158 46.0957 105.441 46.0957C103.588 46.0957 102.258 45.4271 101.443 44.097H101.39V51.5123H98.26V36.3367C98.26 34.8323 98.2209 33.2888 98.1462 31.7026H100.895L101.07 33.9361H101.13C102.169 32.2539 103.751 31.4146 105.874 31.4146C107.535 31.4146 108.919 32.0725 110.032 33.3848C111.142 34.7007 111.693 36.4256 111.693 38.5666Z" fill="white"/>
<path d="M129.796 40.3054C129.796 41.9628 129.219 43.3142 128.06 44.3598C126.787 45.4979 125.019 46.0669 122.747 46.0669C120.645 46.0669 118.959 45.6615 117.682 44.8506L118.408 42.2473C119.784 43.0759 121.288 43.4885 122.932 43.4885C124.109 43.4885 125.026 43.2253 125.684 42.6954C126.339 42.1619 126.666 41.4506 126.666 40.5615C126.666 39.772 126.399 39.0998 125.858 38.5592C125.318 38.0186 124.418 37.5171 123.163 37.0512C119.745 35.7745 118.038 33.9073 118.038 31.4533C118.038 29.8494 118.635 28.5335 119.834 27.5092C121.029 26.4849 122.622 25.9692 124.61 25.9692C126.388 25.9692 127.864 26.2822 129.042 26.8975L128.259 29.4475C127.16 28.85 125.915 28.5477 124.525 28.5477C123.422 28.5477 122.565 28.818 121.95 29.3586C121.431 29.8423 121.167 30.4326 121.167 31.1261C121.167 31.8979 121.463 32.5345 122.064 33.036C122.583 33.4983 123.529 33.9998 124.902 34.5439C126.58 35.2197 127.815 36.0092 128.608 36.9161C129.397 37.823 129.796 38.954 129.796 40.3054Z" fill="white"/>
<path d="M140.13 34.0496H136.684V40.8816C136.684 42.6208 137.292 43.4886 138.512 43.4886C139.067 43.4886 139.533 43.4423 139.899 43.3463L139.985 45.7185C139.373 45.9532 138.558 46.067 137.556 46.067C136.321 46.067 135.354 45.69 134.657 44.9396C133.964 44.1856 133.615 42.9195 133.615 41.1448V34.0496H131.559V31.7024H133.615V29.1275L136.684 28.1992V31.7024H140.13" fill="white"/>
<path d="M152.439 38.7267C152.439 37.4286 152.159 36.3189 151.597 35.3871C150.946 34.2633 150.007 33.7014 148.791 33.7014C147.535 33.7014 146.578 34.2633 145.924 35.3871C145.362 36.3189 145.088 37.4499 145.088 38.7871C145.088 40.0853 145.362 41.1949 145.924 42.1231C146.6 43.247 147.546 43.8089 148.766 43.8089C149.957 43.8089 150.896 43.2399 151.572 42.0947C152.151 41.1487 152.439 40.0248 152.439 38.7267ZM155.683 38.6271C155.683 40.7894 155.068 42.5641 153.83 43.9547C152.536 45.3844 150.818 46.0957 148.677 46.0957C146.607 46.0957 144.964 45.4093 143.737 44.0401C142.513 42.6708 141.902 40.9424 141.902 38.8583C141.902 36.6746 142.531 34.8892 143.797 33.5022C145.06 32.1081 146.763 31.4146 148.904 31.4146C150.971 31.4146 152.635 32.101 153.887 33.4702C155.086 34.8074 155.683 36.5217 155.683 38.6271Z" fill="white"/>
<path d="M165.847 34.4553C165.538 34.3984 165.211 34.37 164.862 34.37C163.763 34.37 162.91 34.7861 162.312 35.6148C161.793 36.351 161.533 37.2756 161.533 38.3924V45.7792H158.407L158.432 36.1376C158.432 34.5123 158.393 33.0363 158.318 31.7026H161.043L161.156 34.3984H161.238C161.569 33.4738 162.092 32.7269 162.803 32.1685C163.5 31.6671 164.254 31.4146 165.065 31.4146C165.353 31.4146 165.616 31.4359 165.847 31.4715" fill="white"/>
<path d="M176.848 37.2646C176.869 36.3399 176.666 35.5362 176.243 34.8604C175.703 33.9926 174.867 33.5552 173.75 33.5552C172.729 33.5552 171.897 33.982 171.261 34.832C170.741 35.5077 170.428 36.3186 170.339 37.2646H176.848ZM179.828 38.0755C179.828 38.6374 179.793 39.1069 179.718 39.4945H170.339C170.371 40.8851 170.827 41.9485 171.698 42.6811C172.488 43.3391 173.512 43.6627 174.767 43.6627C176.154 43.6627 177.42 43.4422 178.562 42.9977L179.053 45.1707C177.719 45.7468 176.147 46.042 174.33 46.042C172.15 46.042 170.435 45.3983 169.191 44.1108C167.949 42.8305 167.323 41.1056 167.323 38.9433C167.323 36.8201 167.9 35.0525 169.063 33.6441C170.275 32.1362 171.918 31.3857 173.981 31.3857C176.008 31.3857 177.548 32.1362 178.59 33.6441C179.419 34.8391 179.828 36.3186 179.828 38.0755Z" fill="white"/>
</svg>
