<svg width="1182" height="1369" viewBox="0 0 1182 1369" fill="none" xmlns="http://www.w3.org/2000/svg">
<path d="M81.8552 119.991C67.688 120.154 53.6344 122.571 40.2106 127.153C23.4095 132.89 7.89087 141.918 -5.45897 153.72C-18.8088 165.522 -29.7281 179.867 -37.5933 195.937C-45.4608 212.01 -50.1189 229.492 -51.3014 247.385C-52.4839 265.279 -50.1679 283.232 -44.4851 300.22C-38.8024 317.208 -29.8646 332.897 -18.1825 346.391C-6.50035 359.885 7.6971 370.919 23.5986 378.863C164.886 449.518 304.561 488.998 441.027 503.474C212.672 695.558 76.9668 890.2 -42.5859 1179.67C-52.8017 1204.42 -55.5799 1231.67 -50.5737 1258.01C-45.5675 1284.35 -32.9986 1308.61 -14.4364 1327.77C4.12585 1346.93 27.8589 1360.14 53.7999 1365.74C79.741 1371.35 106.741 1369.1 131.428 1359.29C439.931 1236.5 700.366 1178.62 975.214 1348.68C1005.75 1367.56 1042.44 1373.41 1077.24 1364.94C1112.03 1356.48 1142.08 1334.39 1160.78 1303.54C1170.03 1288.25 1176.22 1271.26 1178.99 1253.56C1181.75 1235.85 1181.04 1217.77 1176.9 1200.34C1172.75 1182.91 1165.25 1166.48 1154.82 1151.98C1144.4 1137.48 1131.25 1125.21 1116.13 1115.85C855.614 954.657 588.493 953.46 335.729 1011.66C472.175 773.366 648.971 637.647 1112.94 375.646C1143.5 358.347 1166.22 329.719 1176.29 295.807C1186.37 261.894 1183.02 225.35 1166.95 193.889C1150.87 162.427 1123.34 138.51 1090.16 127.186C1056.98 115.862 1020.74 118.017 989.101 133.196C915.072 168.808 841.966 196.694 768.451 215.328C767.286 220.233 765.977 225.085 764.513 229.885C762.799 235.509 760.849 241.076 758.73 246.539C756.617 251.976 754.284 257.414 751.751 262.73C749.228 268.031 746.535 273.184 743.647 278.247C740.749 283.321 737.698 288.295 734.418 293.159C731.151 297.999 727.68 302.741 724.047 307.342C720.411 311.951 716.621 316.355 712.691 320.637C711.128 322.333 709.504 324.014 707.874 325.685C720.759 329.825 733.618 334.342 746.442 339.317C749.085 340.342 751.501 341.883 753.553 343.854C755.605 345.824 757.252 348.185 758.4 350.801C759.548 353.416 760.175 356.235 760.243 359.095C760.312 361.956 759.821 364.802 758.8 367.47C756.753 372.849 752.678 377.186 747.47 379.529C742.262 381.872 736.348 382.029 731.026 379.965C606.296 331.575 484.937 324.264 361.957 379.484C359.374 380.652 356.589 381.294 353.761 381.373C350.932 381.451 348.116 380.965 345.474 379.941C342.832 378.918 340.415 377.377 338.363 375.407C336.311 373.438 334.663 371.079 333.514 368.464C332.371 365.852 331.749 363.038 331.681 360.183C331.614 357.328 332.104 354.487 333.122 351.823C334.141 349.16 335.669 346.725 337.618 344.658C339.567 342.591 341.9 340.933 344.484 339.777C355.303 334.919 366.132 330.548 376.969 326.572C375.067 324.663 373.167 322.718 371.309 320.706C367.355 316.399 363.521 311.953 359.883 307.34C356.252 302.743 352.793 297.993 349.529 293.157C346.246 288.29 343.178 283.315 340.282 278.245C337.391 273.178 334.703 268.035 332.178 262.729C329.647 257.418 327.31 251.97 325.199 246.537C323.078 241.071 321.148 235.507 319.434 229.883C317.728 224.288 316.21 218.631 314.916 212.892C314.163 209.555 313.503 206.218 312.912 202.885C257.968 185.918 201.602 163.287 143.311 134.137C124.216 124.585 103.158 119.738 81.8552 119.991Z" fill="#FFE5D5"/>
<path d="M542.437 -12.9764C488.108 -12.9633 435.771 7.39676 395.816 44.0617C355.86 80.7266 331.208 131.015 326.753 184.945C327.136 189.784 327.683 194.61 328.393 199.413C329.196 204.724 330.199 210.005 331.399 215.242C332.599 220.484 333.996 225.679 335.586 230.816C337.177 235.959 338.961 241.041 340.935 246.05C342.908 251.054 345.068 255.982 347.411 260.824C349.75 265.665 352.27 270.417 354.965 275.071C357.664 279.727 360.537 284.28 363.578 288.722C366.622 293.163 369.831 297.49 373.199 301.692C376.565 305.896 380.088 309.972 383.76 313.913C386.03 316.332 388.354 318.698 390.733 321.011C390.899 320.978 391.029 320.942 391.192 320.873C393.441 320.309 395.695 319.741 397.942 319.205C400.191 318.665 402.428 318.149 404.676 317.64C406.925 317.127 409.178 316.643 411.426 316.158C413.675 315.673 415.929 315.198 418.176 314.744C420.425 314.29 422.661 313.843 424.91 313.42C427.158 312.99 429.412 312.581 431.66 312.175C433.909 311.773 436.162 311.377 438.41 310.998C440.659 310.624 442.895 310.273 445.143 309.926C447.392 309.578 449.645 309.227 451.893 308.904C454.142 308.56 456.379 308.282 458.626 307.982C460.875 307.673 463.129 307.401 465.377 307.133C469.873 306.589 474.364 306.094 478.86 305.651C483.356 305.214 487.865 304.832 492.361 304.495C496.857 304.151 501.348 303.886 505.844 303.645C510.34 303.405 514.832 303.219 519.328 303.081C523.824 302.944 528.315 302.84 532.811 302.806C537.307 302.773 541.816 302.773 546.312 302.823C550.808 302.892 555.299 302.995 559.795 303.133C564.291 303.305 568.783 303.486 573.279 303.727C577.775 303.968 582.266 304.278 586.762 304.615C591.258 304.959 595.767 305.327 600.263 305.757C604.759 306.186 609.25 306.655 613.746 307.17C618.242 307.69 622.733 308.25 627.229 308.856C631.725 309.461 636.234 310.121 640.73 310.813C645.226 311.504 649.718 312.23 654.213 313.007C658.71 313.788 663.201 314.613 667.697 315.473C672.193 316.336 676.684 317.247 681.18 318.197C685.483 319.101 689.797 320.058 694.1 321.038C696.49 318.709 698.827 316.326 701.106 313.89C704.778 309.948 708.301 305.872 711.667 301.668C715.036 297.466 718.245 293.139 721.289 288.698C724.33 284.256 727.203 279.703 729.902 275.048C732.597 270.394 735.116 265.642 737.455 260.801C739.798 255.958 741.959 251.03 743.932 246.026C745.905 241.017 747.689 235.935 749.281 230.793C750.871 225.655 752.268 220.46 753.468 215.218C754.668 209.981 755.67 204.701 756.474 199.389C757.195 194.507 757.748 189.602 758.131 184.682C753.619 130.793 728.939 80.5603 688.986 43.9446C649.032 7.32892 596.73 -12.9725 542.437 -12.9764Z" fill="#FFE5D5"/>
</svg>
