<svg width="112" height="126" viewBox="0 0 112 126" fill="none" xmlns="http://www.w3.org/2000/svg">
<path d="M12.1958 12.3928C10.9145 12.4076 9.64358 12.6262 8.42959 13.0406C6.91016 13.5594 5.50672 14.3758 4.29942 15.4432C3.09211 16.5105 2.10462 17.8078 1.39332 19.2611C0.681812 20.7147 0.260552 22.2957 0.153612 23.9139C0.0466722 25.5321 0.256128 27.1557 0.770052 28.692C1.28398 30.2283 2.09227 31.6472 3.14876 32.8676C4.20524 34.0879 5.4892 35.0858 6.92727 35.8042C19.7047 42.194 32.3364 45.7643 44.6778 47.0735C24.0263 64.4448 11.7537 82.0474 0.941812 108.226C0.0179327 110.464 -0.233316 112.929 0.219424 115.311C0.672165 117.692 1.80884 119.887 3.48754 121.62C5.16623 123.352 7.31255 124.547 9.65855 125.054C12.0046 125.561 14.4463 125.358 16.6789 124.47C44.5787 113.365 68.1313 108.131 92.9875 123.51C95.7486 125.218 99.0673 125.747 102.214 124.981C105.361 124.216 108.078 122.218 109.769 119.428C110.606 118.045 111.166 116.509 111.416 114.908C111.666 113.307 111.602 111.671 111.227 110.095C110.852 108.519 110.174 107.033 109.231 105.722C108.288 104.411 107.098 103.3 105.731 102.454C82.1714 87.8767 58.014 87.7685 35.1551 93.0315C47.4947 71.4815 63.4834 59.2076 105.443 35.5133C108.207 33.9488 110.261 31.3598 111.172 28.2929C112.083 25.226 111.78 21.9211 110.327 19.0759C108.874 16.2306 106.384 14.0677 103.383 13.0436C100.382 12.0195 97.1048 12.2144 94.2434 13.5871C87.5485 16.8077 80.9371 19.3296 74.2887 21.0148C74.1834 21.4583 74.0649 21.8971 73.9326 22.3312C73.7775 22.8398 73.6012 23.3433 73.4096 23.8373C73.2185 24.3291 73.0075 24.8209 72.7784 25.3016C72.5503 25.781 72.3067 26.247 72.0455 26.7049C71.7834 27.1638 71.5075 27.6136 71.2109 28.0535C70.9154 28.4912 70.6015 28.9201 70.2729 29.3362C69.9442 29.7529 69.6014 30.1512 69.246 30.5385C69.1047 30.6918 68.9578 30.8439 68.8104 30.995C69.9757 31.3694 71.1386 31.7779 72.2983 32.2278C72.5373 32.3205 72.7558 32.4599 72.9414 32.6381C73.127 32.8163 73.2759 33.0298 73.3797 33.2663C73.4836 33.5029 73.5402 33.7578 73.5464 34.0165C73.5526 34.2752 73.5083 34.5325 73.4159 34.7739C73.2308 35.2603 72.8622 35.6526 72.3913 35.8644C71.9203 36.0763 71.3854 36.0905 70.9041 35.9039C59.624 31.5277 48.6489 30.8665 37.527 35.8603C37.2934 35.966 37.0416 36.0241 36.7858 36.0312C36.53 36.0383 36.2753 35.9943 36.0364 35.9017C35.7974 35.8091 35.5789 35.6698 35.3933 35.4917C35.2077 35.3136 35.0587 35.1002 34.9548 34.8638C34.8514 34.6276 34.7951 34.3731 34.789 34.1149C34.783 33.8567 34.8272 33.5998 34.9193 33.3588C35.0115 33.1179 35.1496 32.8977 35.3259 32.7108C35.5022 32.5239 35.7132 32.3739 35.9468 32.2695C36.9253 31.8301 37.9046 31.4348 38.8847 31.0752C38.7127 30.9025 38.5408 30.7266 38.3728 30.5447C38.0152 30.1552 37.6685 29.7531 37.3394 29.336C37.0111 28.9202 36.6983 28.4907 36.4031 28.0533C36.1062 27.6131 35.8287 27.1633 35.5668 26.7048C35.3054 26.2465 35.0623 25.7813 34.834 25.3015C34.605 24.8212 34.3937 24.3285 34.2028 23.8372C34.011 23.3428 33.8364 22.8397 33.6814 22.3311C33.5271 21.8251 33.3899 21.3135 33.2728 20.7944C33.2048 20.4927 33.1451 20.1908 33.0916 19.8895C28.1227 18.355 23.0251 16.3084 17.7535 13.6722C16.0267 12.8083 14.1223 12.37 12.1958 12.3928Z" fill="white"/>
<path d="M53.8488 0.367858C48.9356 0.369039 44.2025 2.21032 40.5891 5.52615C36.9756 8.84197 34.7462 13.3899 34.3433 18.267C34.3779 18.7047 34.4274 19.1411 34.4916 19.5754C34.5643 20.0558 34.6549 20.5334 34.7634 21.007C34.872 21.481 34.9983 21.9508 35.1421 22.4155C35.286 22.8806 35.4474 23.3401 35.6258 23.7932C35.8043 24.2457 35.9996 24.6913 36.2115 25.1293C36.4231 25.5671 36.6509 25.9968 36.8947 26.4177C37.1388 26.8387 37.3986 27.2505 37.6736 27.6522C37.9488 28.0539 38.2391 28.4452 38.5437 28.8252C38.8481 29.2054 39.1667 29.574 39.4988 29.9304C39.704 30.1491 39.9142 30.3632 40.1294 30.5723C40.1444 30.5693 40.1561 30.5661 40.1709 30.5599C40.3743 30.5089 40.5781 30.4575 40.7814 30.409C40.9848 30.3601 41.187 30.3135 41.3903 30.2674C41.5937 30.2211 41.7975 30.1773 42.0008 30.1334C42.2042 30.0896 42.408 30.0466 42.6112 30.0056C42.8146 29.9645 43.0169 29.9241 43.2202 29.8858C43.4235 29.8469 43.6273 29.8099 43.8306 29.7732C44.034 29.7368 44.2378 29.701 44.4411 29.6668C44.6445 29.6329 44.8467 29.6012 45.05 29.5698C45.2534 29.5384 45.4572 29.5066 45.6605 29.4774C45.8639 29.4463 46.0661 29.4211 46.2694 29.3941C46.4728 29.3661 46.6766 29.3415 46.8799 29.3172C47.2865 29.2681 47.6927 29.2233 48.0993 29.1832C48.5059 29.1437 48.9136 29.1092 49.3202 29.0787C49.7268 29.0476 50.133 29.0236 50.5396 29.0018C50.9462 28.9801 51.3524 28.9633 51.759 28.9508C52.1656 28.9384 52.5717 28.9291 52.9784 28.9259C53.3849 28.923 53.7927 28.923 54.1993 28.9275C54.6059 28.9337 55.0121 28.943 55.4187 28.9555C55.8253 28.971 56.2315 28.9875 56.6381 29.0092C57.0447 29.031 57.4509 29.059 57.8574 29.0895C58.2641 29.1206 58.6718 29.1539 59.0784 29.1928C59.485 29.2317 59.8912 29.274 60.2978 29.3206C60.7044 29.3676 61.1106 29.4183 61.5171 29.473C61.9237 29.5278 62.3315 29.5875 62.7381 29.65C63.1447 29.7125 63.5509 29.7782 63.9575 29.8485C64.3641 29.9191 64.7703 29.9937 65.1769 30.0715C65.5835 30.1496 65.9896 30.232 66.3963 30.3178C66.7854 30.3996 67.1755 30.4861 67.5646 30.5748C67.7808 30.3642 67.9921 30.1486 68.1983 29.9283C68.5304 29.5719 68.849 29.2032 69.1534 28.823C69.458 28.443 69.7482 28.0517 70.0235 27.6501C70.2985 27.2484 70.5583 26.8366 70.8024 26.4156C71.0462 25.9947 71.274 25.565 71.4855 25.1271C71.6974 24.6892 71.8928 24.2435 72.0713 23.791C72.2497 23.338 72.4111 22.8784 72.555 22.4133C72.6988 21.9487 72.8251 21.4789 72.9336 21.0049C73.0421 20.5312 73.1328 20.0537 73.2055 19.5733C73.2707 19.1318 73.3207 18.6882 73.3554 18.2433C72.9473 13.3698 70.7153 8.82694 67.1021 5.51556C63.4889 2.20419 58.7589 0.368209 53.8488 0.367858Z" fill="white"/>
</svg>
