<svg width="262" height="262" viewBox="0 0 262 262" fill="none" xmlns="http://www.w3.org/2000/svg">
<circle cx="131" cy="131" r="131" fill="white"/>
<path fill-rule="evenodd" clip-rule="evenodd" d="M153.644 116.09C157.755 116.09 161.087 112.709 161.087 108.543C161.087 104.377 157.755 101 153.644 101C149.532 101 146.2 104.377 146.2 108.543C146.2 112.709 149.532 116.09 153.644 116.09ZM133.04 161.772H90.1978C87.6921 161.772 86.1632 159.005 87.4878 156.869L116.059 110.779C117.288 108.793 120.138 108.742 121.421 110.692C125.887 117.501 135.054 131.49 142.938 143.681L151.215 130.249C152.415 128.299 155.204 128.209 156.529 130.079L175.403 156.753C176.897 158.867 175.419 161.795 172.84 161.817L154.55 162L133.04 161.772Z" fill="#94A2AB"/>
</svg>
