<svg width="35" height="39" viewBox="0 0 35 39" fill="none" xmlns="http://www.w3.org/2000/svg">
<path d="M3.80626 3.75364C3.4064 3.75825 3.00974 3.82647 2.63085 3.9558C2.15664 4.11772 1.71863 4.37252 1.34184 4.70563C0.96504 5.03875 0.656845 5.44364 0.434852 5.89721C0.212792 6.35085 0.0813175 6.84429 0.0479419 7.34933C0.0145663 7.85436 0.0799368 8.36109 0.240331 8.84057C0.400725 9.32004 0.652993 9.76288 0.982718 10.1437C1.31244 10.5246 1.71316 10.836 2.16198 11.0603C6.14979 13.0545 10.0921 14.1688 13.9438 14.5774C7.49855 19.9989 3.66829 25.4926 0.293937 33.6629C0.00559674 34.3615 -0.0728173 35.1305 0.0684817 35.874C0.209781 36.6174 0.564535 37.3022 1.08845 37.843C1.61237 38.3838 2.28223 38.7566 3.01441 38.9148C3.74659 39.073 4.50865 39.0096 5.20544 38.7326C13.9129 35.2668 21.2636 33.6333 29.0211 38.4331C29.8829 38.966 30.9186 39.1312 31.9007 38.8922C32.8829 38.6533 33.7309 38.0299 34.2586 37.159C34.5199 36.7275 34.6945 36.2481 34.7726 35.7484C34.8507 35.2486 34.8306 34.7382 34.7136 34.2463C34.5966 33.7544 34.3849 33.2906 34.0906 32.8814C33.7963 32.4722 33.4251 32.1256 32.9984 31.8614C25.6455 27.3119 18.106 27.2782 10.9718 28.9207C14.823 22.195 19.813 18.3644 32.9086 10.9695C33.771 10.4812 34.4121 9.67318 34.6965 8.71601C34.9809 7.75883 34.8863 6.72739 34.4327 5.8394C33.9791 4.9514 33.202 4.27635 32.2655 3.95673C31.3289 3.63711 30.3062 3.69794 29.4131 4.12637C27.3237 5.13149 25.2603 5.91857 23.1853 6.44452C23.1524 6.58296 23.1155 6.7199 23.0742 6.85538C23.0258 7.01411 22.9707 7.17126 22.9109 7.32544C22.8513 7.4789 22.7854 7.6324 22.7139 7.78244C22.6427 7.93205 22.5667 8.07748 22.4852 8.22039C22.4034 8.36362 22.3173 8.50399 22.2247 8.64128C22.1325 8.77788 22.0345 8.91174 21.932 9.0416C21.8294 9.17168 21.7224 9.29597 21.6115 9.41684C21.5674 9.4647 21.5215 9.51217 21.4755 9.55931C21.8392 9.67618 22.2022 9.80366 22.5641 9.94408C22.6387 9.973 22.7069 10.0165 22.7648 10.0721C22.8227 10.1277 22.8692 10.1944 22.9016 10.2682C22.934 10.342 22.9517 10.4216 22.9536 10.5023C22.9556 10.5831 22.9417 10.6634 22.9129 10.7387C22.8551 10.8905 22.7401 11.0129 22.5931 11.0791C22.4461 11.1452 22.2792 11.1496 22.129 11.0914C18.6085 9.72556 15.1832 9.51922 11.7121 11.0778C11.6392 11.1108 11.5606 11.1289 11.4807 11.1311C11.4009 11.1333 11.3214 11.1196 11.2469 11.0907C11.1723 11.0618 11.1041 11.0183 11.0461 10.9627C10.9882 10.9071 10.9417 10.8405 10.9093 10.7667C10.877 10.693 10.8595 10.6136 10.8576 10.533C10.8557 10.4524 10.8695 10.3723 10.8982 10.2971C10.927 10.2219 10.9701 10.1532 11.0251 10.0948C11.0801 10.0365 11.146 9.98968 11.2189 9.95707C11.5243 9.81995 11.8299 9.69657 12.1358 9.58434C12.0821 9.53046 12.0285 9.47556 11.976 9.41879C11.8644 9.29722 11.7562 9.17172 11.6535 9.04154C11.5511 8.91178 11.4534 8.77772 11.3613 8.64123C11.2686 8.50384 11.182 8.36344 11.1003 8.22034C11.0187 8.07731 10.9429 7.93215 10.8716 7.78239C10.8001 7.6325 10.7342 7.47873 10.6746 7.32539C10.6147 7.1711 10.5603 7.01406 10.5119 6.85532C10.4637 6.69741 10.4209 6.53774 10.3844 6.37575C10.3631 6.28159 10.3445 6.18737 10.3278 6.09332C8.77702 5.61441 7.18608 4.97567 5.54083 4.15291C5.0019 3.8833 4.40752 3.7465 3.80626 3.75364Z" fill="#FF7F2A"/>
<path d="M16.8061 0.000666571C15.2727 0.00103507 13.7955 0.575695 12.6677 1.61055C11.54 2.64541 10.8442 4.06481 10.7184 5.58695C10.7292 5.72355 10.7447 5.85974 10.7647 5.9953C10.7874 6.14523 10.8157 6.29426 10.8496 6.44208C10.8834 6.59003 10.9229 6.73666 10.9677 6.88167C11.0127 7.02682 11.063 7.17025 11.1187 7.31165C11.1744 7.45287 11.2354 7.59196 11.3015 7.72864C11.3675 7.86528 11.4386 7.9994 11.5147 8.13075C11.5909 8.26215 11.672 8.39067 11.7578 8.51604C11.8437 8.6414 11.9343 8.76352 12.0294 8.88213C12.1244 9.00077 12.2238 9.11582 12.3275 9.22705C12.3915 9.29532 12.4571 9.36212 12.5242 9.42739C12.529 9.42646 12.5326 9.42545 12.5372 9.42351C12.6007 9.40759 12.6643 9.39156 12.7277 9.37642C12.7912 9.36118 12.8543 9.34662 12.9178 9.33225C12.9813 9.31778 13.0449 9.3041 13.1083 9.29042C13.1718 9.27673 13.2354 9.26333 13.2988 9.25051C13.3623 9.2377 13.4254 9.22508 13.4889 9.21314C13.5524 9.201 13.616 9.18946 13.6794 9.178C13.7429 9.16665 13.8065 9.15547 13.8699 9.14479C13.9334 9.13421 13.9965 9.12432 14.06 9.11452C14.1234 9.10471 14.187 9.0948 14.2505 9.08568C14.314 9.07597 14.3771 9.06811 14.4405 9.05966C14.504 9.05093 14.5676 9.04325 14.6311 9.03568C14.758 9.02034 14.8847 9.00637 15.0116 8.99385C15.1385 8.98152 15.2658 8.97075 15.3927 8.96123C15.5196 8.95153 15.6464 8.94405 15.7732 8.93725C15.9001 8.93046 16.0269 8.92521 16.1538 8.92133C16.2807 8.91745 16.4075 8.91454 16.5344 8.91357C16.6613 8.91264 16.7885 8.91264 16.9154 8.91404C17.0423 8.91598 17.1691 8.9189 17.296 8.92278C17.4229 8.92763 17.5497 8.93277 17.6766 8.93956C17.8035 8.94636 17.9302 8.9551 18.0571 8.96461C18.184 8.97432 18.3113 8.98471 18.4382 8.99684C18.5651 9.00898 18.6919 9.02219 18.8187 9.03675C18.9457 9.05141 19.0724 9.06723 19.1993 9.08431C19.3262 9.1014 19.4535 9.12004 19.5804 9.13955C19.7073 9.15906 19.834 9.17954 19.9609 9.20148C20.0878 9.22352 20.2146 9.24682 20.3415 9.27109C20.4684 9.29545 20.5952 9.32117 20.7221 9.34796C20.8435 9.3735 20.9653 9.40049 21.0867 9.42816C21.1542 9.36244 21.2201 9.29516 21.2845 9.2264C21.3881 9.11516 21.4876 9.0001 21.5826 8.88145C21.6776 8.76284 21.7682 8.64073 21.8541 8.51537C21.94 8.39001 22.021 8.2615 22.0972 8.13009C22.1733 7.99875 22.2444 7.86461 22.3104 7.72797C22.3766 7.59129 22.4375 7.45219 22.4932 7.31097C22.5489 7.16957 22.5993 7.02615 22.6442 6.881C22.6891 6.73599 22.7285 6.58936 22.7624 6.44142C22.7962 6.2936 22.8245 6.14456 22.8472 5.99464C22.8676 5.85684 22.8832 5.7184 22.894 5.57954C22.7666 4.05853 22.07 2.64072 20.9424 1.60725C19.8147 0.57378 18.3385 0.000775874 16.8061 0.000666571Z" fill="#FF7F2A"/>
</svg>
