<svg width="138" height="39" viewBox="0 0 138 39" fill="none" xmlns="http://www.w3.org/2000/svg">
<path d="M3.80626 3.75364C3.4064 3.75825 3.00974 3.82647 2.63085 3.9558C2.15664 4.11772 1.71863 4.37252 1.34184 4.70563C0.96504 5.03875 0.656845 5.44364 0.434852 5.89721C0.212792 6.35085 0.0813175 6.84429 0.0479419 7.34933C0.0145663 7.85436 0.0799368 8.36109 0.240331 8.84057C0.400725 9.32004 0.652993 9.76288 0.982718 10.1437C1.31244 10.5246 1.71316 10.836 2.16198 11.0603C6.14979 13.0545 10.0921 14.1688 13.9438 14.5774C7.49855 19.9989 3.66829 25.4926 0.293937 33.6629C0.00559674 34.3615 -0.0728173 35.1305 0.0684817 35.874C0.209781 36.6174 0.564535 37.3022 1.08845 37.843C1.61237 38.3838 2.28223 38.7566 3.01441 38.9148C3.74659 39.073 4.50865 39.0096 5.20544 38.7326C13.9129 35.2668 21.2636 33.6333 29.0211 38.4331C29.8829 38.966 30.9186 39.1312 31.9007 38.8922C32.8829 38.6533 33.7309 38.0299 34.2586 37.159C34.5199 36.7275 34.6945 36.2481 34.7726 35.7484C34.8507 35.2486 34.8306 34.7382 34.7136 34.2463C34.5966 33.7544 34.3849 33.2906 34.0906 32.8814C33.7963 32.4722 33.4251 32.1256 32.9984 31.8614C25.6455 27.3119 18.106 27.2782 10.9718 28.9207C14.823 22.195 19.813 18.3644 32.9086 10.9695C33.771 10.4812 34.4121 9.67318 34.6965 8.71601C34.9809 7.75883 34.8863 6.72739 34.4327 5.8394C33.9791 4.9514 33.202 4.27635 32.2655 3.95673C31.3289 3.63711 30.3062 3.69794 29.4131 4.12637C27.3237 5.13149 25.2603 5.91857 23.1853 6.44452C23.1524 6.58296 23.1155 6.7199 23.0742 6.85538C23.0258 7.01411 22.9707 7.17126 22.9109 7.32544C22.8513 7.4789 22.7854 7.6324 22.7139 7.78244C22.6427 7.93205 22.5667 8.07748 22.4852 8.22039C22.4034 8.36362 22.3173 8.50399 22.2247 8.64128C22.1325 8.77788 22.0345 8.91174 21.932 9.0416C21.8294 9.17168 21.7224 9.29597 21.6115 9.41684C21.5674 9.4647 21.5215 9.51217 21.4755 9.55931C21.8392 9.67618 22.2022 9.80366 22.5641 9.94408C22.6387 9.973 22.7069 10.0165 22.7648 10.0721C22.8227 10.1277 22.8692 10.1944 22.9016 10.2682C22.934 10.342 22.9517 10.4216 22.9536 10.5023C22.9556 10.5831 22.9417 10.6634 22.9129 10.7387C22.8551 10.8905 22.7401 11.0129 22.5931 11.0791C22.4461 11.1452 22.2792 11.1496 22.129 11.0914C18.6085 9.72556 15.1832 9.51922 11.7121 11.0778C11.6392 11.1108 11.5606 11.1289 11.4807 11.1311C11.4009 11.1333 11.3214 11.1196 11.2469 11.0907C11.1723 11.0618 11.1041 11.0183 11.0461 10.9627C10.9882 10.9071 10.9417 10.8405 10.9093 10.7667C10.877 10.693 10.8595 10.6136 10.8576 10.533C10.8557 10.4524 10.8695 10.3723 10.8982 10.2971C10.927 10.2219 10.9701 10.1532 11.0251 10.0948C11.0801 10.0365 11.146 9.98968 11.2189 9.95707C11.5243 9.81995 11.8299 9.69657 12.1358 9.58434C12.0821 9.53046 12.0285 9.47556 11.976 9.41879C11.8644 9.29722 11.7562 9.17172 11.6535 9.04154C11.5511 8.91178 11.4534 8.77772 11.3613 8.64123C11.2686 8.50384 11.182 8.36344 11.1003 8.22034C11.0187 8.07731 10.9429 7.93215 10.8716 7.78239C10.8001 7.6325 10.7342 7.47873 10.6746 7.32539C10.6147 7.1711 10.5603 7.01406 10.5119 6.85532C10.4637 6.69741 10.4209 6.53774 10.3844 6.37575C10.3631 6.28159 10.3445 6.18737 10.3278 6.09332C8.77702 5.61441 7.18608 4.97567 5.54083 4.15291C5.0019 3.8833 4.40752 3.7465 3.80626 3.75364Z" fill="#FF7F2A"/>
<path d="M16.8061 0.000666571C15.2727 0.00103507 13.7955 0.575695 12.6677 1.61055C11.54 2.64541 10.8442 4.06481 10.7184 5.58695C10.7292 5.72355 10.7447 5.85974 10.7647 5.9953C10.7874 6.14523 10.8157 6.29426 10.8496 6.44208C10.8834 6.59003 10.9229 6.73666 10.9677 6.88167C11.0127 7.02682 11.063 7.17025 11.1187 7.31165C11.1744 7.45287 11.2354 7.59196 11.3015 7.72864C11.3675 7.86528 11.4386 7.9994 11.5147 8.13075C11.5909 8.26215 11.672 8.39067 11.7578 8.51604C11.8437 8.6414 11.9343 8.76352 12.0294 8.88213C12.1244 9.00077 12.2238 9.11582 12.3275 9.22705C12.3915 9.29532 12.4571 9.36212 12.5242 9.42739C12.529 9.42646 12.5326 9.42545 12.5372 9.42351C12.6007 9.40759 12.6643 9.39156 12.7277 9.37642C12.7912 9.36118 12.8543 9.34662 12.9178 9.33225C12.9813 9.31778 13.0449 9.3041 13.1083 9.29042C13.1718 9.27673 13.2354 9.26333 13.2988 9.25051C13.3623 9.2377 13.4254 9.22508 13.4889 9.21314C13.5524 9.201 13.616 9.18946 13.6794 9.178C13.7429 9.16665 13.8065 9.15547 13.8699 9.14479C13.9334 9.13421 13.9965 9.12432 14.06 9.11452C14.1234 9.10471 14.187 9.0948 14.2505 9.08568C14.314 9.07597 14.3771 9.06811 14.4405 9.05966C14.504 9.05093 14.5676 9.04325 14.6311 9.03568C14.758 9.02034 14.8847 9.00637 15.0116 8.99385C15.1385 8.98152 15.2658 8.97075 15.3927 8.96123C15.5196 8.95153 15.6464 8.94405 15.7732 8.93725C15.9001 8.93046 16.0269 8.92521 16.1538 8.92133C16.2807 8.91745 16.4075 8.91454 16.5344 8.91357C16.6613 8.91264 16.7885 8.91264 16.9154 8.91404C17.0423 8.91598 17.1691 8.9189 17.296 8.92278C17.4229 8.92763 17.5497 8.93277 17.6766 8.93956C17.8035 8.94636 17.9302 8.9551 18.0571 8.96461C18.184 8.97432 18.3113 8.98471 18.4382 8.99684C18.5651 9.00898 18.6919 9.02219 18.8187 9.03675C18.9457 9.05141 19.0724 9.06723 19.1993 9.08431C19.3262 9.1014 19.4535 9.12004 19.5804 9.13955C19.7073 9.15906 19.834 9.17954 19.9609 9.20148C20.0878 9.22352 20.2146 9.24682 20.3415 9.27109C20.4684 9.29545 20.5952 9.32117 20.7221 9.34796C20.8435 9.3735 20.9653 9.40049 21.0867 9.42816C21.1542 9.36244 21.2201 9.29516 21.2845 9.2264C21.3881 9.11516 21.4876 9.0001 21.5826 8.88145C21.6776 8.76284 21.7682 8.64073 21.8541 8.51537C21.94 8.39001 22.021 8.2615 22.0972 8.13009C22.1733 7.99875 22.2444 7.86461 22.3104 7.72797C22.3766 7.59129 22.4375 7.45219 22.4932 7.31097C22.5489 7.16957 22.5993 7.02615 22.6442 6.881C22.6891 6.73599 22.7285 6.58936 22.7624 6.44142C22.7962 6.2936 22.8245 6.14456 22.8472 5.99464C22.8676 5.85684 22.8832 5.7184 22.894 5.57954C22.7666 4.05853 22.07 2.64072 20.9424 1.60725C19.8147 0.57378 18.3385 0.000775874 16.8061 0.000666571Z" fill="#FF7F2A"/>
<path d="M42.1722 6.01781C41.4679 6.01781 40.9138 6.25239 40.4171 6.75446L37.5889 9.6206L37.5768 9.63198C37.1413 10.1089 36.9608 10.6862 36.9608 11.3128C36.9608 11.9757 37.1697 12.5888 37.6364 13.0941L37.6575 13.1217L37.6848 13.1421C38.1777 13.6073 38.779 13.832 39.4466 13.832C40.1068 13.832 40.7044 13.5915 41.1753 13.1154L43.9041 10.3496C44.171 10.1135 44.3946 9.81943 44.5201 9.4389C44.6147 9.15191 44.6593 8.86426 44.6593 8.56161C44.6593 7.88666 44.4373 7.27866 43.977 6.78026C43.4747 6.23599 42.8918 6.01684 42.1755 6.01684L42.1722 6.01781ZM97.7552 14.0873C96.436 14.0873 95.2152 14.4062 94.0991 15.0383C93.8641 15.1714 93.6988 15.3801 93.4831 15.5338C93.3855 15.3498 93.4222 15.1119 93.2648 14.9579C92.7911 14.4627 92.1533 14.2614 91.4964 14.2614C90.8232 14.2614 90.2052 14.4485 89.7147 14.9445C89.2244 15.4403 89.0391 16.0653 89.0391 16.7459V29.7241C89.0391 30.4153 89.2162 31.0484 89.7147 31.5522L89.7358 31.5636L89.7479 31.575C90.2301 32.0249 90.8467 32.2044 91.4965 32.2044C92.1637 32.2044 92.8157 32.0076 93.2914 31.4946C93.765 31.0026 93.9537 30.39 93.9537 29.72V21.2419C93.9537 20.5966 94.1481 20.1268 94.4903 19.7687C94.8958 19.3586 95.4854 19.0299 96.305 18.8513C97.1144 18.6747 98.0678 18.6861 99.1663 18.9117C99.5269 18.9942 99.8929 19.0126 100.259 18.946C100.64 18.876 100.993 18.7206 101.306 18.4437C101.667 18.119 101.858 17.7065 101.955 17.2718C102.202 16.2625 101.682 15.3817 100.862 14.8477C100.073 14.3067 98.9933 14.0842 97.7556 14.0842L97.7552 14.0873ZM100.862 14.8507C100.868 14.853 100.883 14.8527 100.889 14.8575L100.855 14.8301C100.861 14.8323 100.856 14.8485 100.862 14.8507ZM101.954 17.275C101.952 17.2818 101.963 17.2863 101.96 17.2954L101.966 17.2486C101.964 17.2577 101.957 17.2656 101.954 17.275ZM93.291 31.4988C93.285 31.5056 93.285 31.5192 93.2789 31.5262L93.3062 31.4919C93.3033 31.4942 93.2972 31.4942 93.2941 31.4988H93.291ZM93.2648 14.9579C93.2738 14.967 93.2944 14.9647 93.3035 14.9783L93.2438 14.9179C93.2528 14.9269 93.2497 14.9451 93.2648 14.9579ZM130.056 14.1208C128.637 14.1208 127.331 14.4307 126.149 15.0851C125.972 15.1829 125.844 15.3311 125.678 15.4401C125.587 15.2953 125.619 15.0992 125.493 14.9713C125.008 14.4811 124.387 14.2614 123.711 14.2614C123.043 14.2614 122.442 14.486 121.949 14.9512L121.937 14.9626L121.925 14.9694C121.433 15.4664 121.229 16.0988 121.229 16.7708V29.7222C121.229 30.3851 121.445 30.9979 121.905 31.4967L121.926 31.5243L121.953 31.5447C122.446 32.01 123.048 32.2345 123.715 32.2345C124.391 32.2345 125.012 32.0147 125.497 31.5246L125.503 31.5133L125.515 31.5019C125.969 31.01 126.197 30.4023 126.197 29.7273V21.5372C126.197 21.0318 126.334 20.5917 126.588 20.2314C126.864 19.8272 127.252 19.4907 127.76 19.2335C128.255 18.9836 128.826 18.8519 129.483 18.8519C130.226 18.8519 130.84 18.9984 131.344 19.2604L131.356 19.2671L131.368 19.274C131.865 19.5113 132.265 19.8759 132.567 20.399C132.853 20.8951 133.03 21.6032 133.03 22.5822V29.7275C133.03 30.3904 133.245 31.0033 133.706 31.5022L133.727 31.5299L133.754 31.5504C134.247 32.0156 134.849 32.2401 135.516 32.2401C136.184 32.2401 136.794 32.0131 137.271 31.5302C137.776 31.0203 138 30.4466 138 29.7288V22.5835C138 20.842 137.664 19.3089 136.954 18.0297C136.262 16.7446 135.311 15.783 134.086 15.1301C132.881 14.4536 131.536 14.1255 130.059 14.1255L130.056 14.1208ZM39.6149 14.1485C37.9387 14.1485 36.4242 14.5383 35.0911 15.3339C33.7574 16.1076 32.7055 17.191 31.945 18.5751C31.1987 19.951 30.839 21.5094 30.839 23.2493C30.839 24.9818 31.2283 26.5487 32.0245 27.9571C32.8247 29.3128 33.913 30.3841 35.3097 31.1782C36.7229 31.9476 38.3039 32.3233 40.0454 32.3233C41.0537 32.3233 42.0847 32.132 43.1252 31.7742C44.1893 31.4156 45.112 30.9358 45.8606 30.3344C46.418 29.9021 46.7547 29.3231 46.7151 28.5599C46.6771 27.8671 46.3457 27.329 45.8407 26.8789C45.3948 26.4991 44.8547 26.3237 44.2644 26.3499C43.7034 26.3567 43.2186 26.5315 42.7675 26.8655C42.4828 27.0814 42.08 27.2965 41.5224 27.5017C41.0046 27.6817 40.514 27.763 40.0454 27.763C39.1107 27.763 38.3138 27.5562 37.6477 27.1737C36.9616 26.7795 36.4312 26.2517 36.0449 25.5798C35.9964 25.4958 35.9879 25.386 35.9454 25.2987H45.4432C46.0546 25.2987 46.6156 25.1082 47.0792 24.6759L47.0913 24.6645L47.1125 24.6532C47.563 24.1977 47.7814 23.6192 47.7814 22.9924C47.7814 21.3294 47.4691 19.8225 46.8211 18.5123C46.1788 17.1465 45.2432 16.0948 43.9995 15.3313C42.7369 14.5335 41.2704 14.1528 39.6149 14.1528L39.6149 14.1485ZM44.2644 26.3499C44.2766 26.3497 44.2855 26.3385 44.2984 26.3385L44.2456 26.3454C44.2517 26.345 44.2577 26.3522 44.2667 26.3522L44.2644 26.3499ZM58.392 14.1485C56.7293 14.1485 55.2103 14.5468 53.8616 15.3607C52.5173 16.1498 51.4536 17.2391 50.6758 18.6152C49.8901 20.0035 49.497 21.5466 49.477 23.2493V36.4887C49.477 37.1637 49.7014 37.7806 50.179 38.2633C50.6834 38.7733 51.2509 39 51.9607 39C52.6717 39 53.2492 38.7786 53.749 38.2432C54.2158 37.7629 54.4445 37.1562 54.4445 36.4887V30.7496C54.7795 30.9869 55.0225 31.326 55.3982 31.5198C56.5058 32.0573 57.6925 32.3233 58.9682 32.3233C60.543 32.3233 61.9861 31.9234 63.28 31.1113C64.5456 30.295 65.5249 29.2035 66.234 27.8566C66.9746 26.4691 67.3334 24.9338 67.3335 23.2493C67.3335 21.551 66.9377 19.9976 66.1347 18.6152C65.3565 17.2385 64.2959 16.1502 62.962 15.3673C61.6012 14.5462 60.0716 14.1485 58.392 14.1485ZM53.749 38.2432C53.743 38.2501 53.7477 38.2546 53.743 38.2637L53.7641 38.2362C53.7612 38.2384 53.7551 38.2385 53.752 38.243L53.749 38.2432ZM77.805 14.1485C76.1422 14.1485 74.6131 14.5462 73.2415 15.3607C71.8988 16.1489 70.8313 17.2341 70.0291 18.6152C69.2431 20.0062 68.8568 21.5546 68.8568 23.2493C68.8568 24.9302 69.2032 26.4611 69.9298 27.8634C70.6612 29.2118 71.6574 30.3038 72.9302 31.1246C74.2133 31.9299 75.6539 32.3233 77.2287 32.3233C78.8035 32.3233 80.2467 31.9233 81.5405 31.1113C81.7528 30.9743 81.8939 30.7683 82.0902 30.6157C82.2028 30.9116 82.2021 31.2549 82.428 31.4997L82.4491 31.5272L82.4764 31.5476C82.9693 32.0128 83.5707 32.2374 84.2382 32.2374C84.9331 32.2374 85.4934 32.0265 85.9868 31.5275C86.4911 31.0176 86.7153 30.4439 86.7153 29.7261V23.2504C86.7153 21.5522 86.3196 19.9987 85.5165 18.6164C84.7384 17.2396 83.6777 16.1514 82.3439 15.3684C80.9863 14.5493 79.4696 14.1497 77.807 14.1497L77.805 14.1485ZM109.988 14.1485C108.277 14.1485 106.731 14.5327 105.378 15.3272C104.027 16.0981 102.96 17.1786 102.179 18.5616C101.409 19.94 101.04 21.506 101.04 23.2493C101.04 24.9683 101.391 26.5174 102.113 27.9103C102.824 29.2624 103.807 30.3495 105.073 31.1581C106.358 31.9422 107.807 32.3233 109.411 32.3233C110.916 32.3233 112.28 31.9293 113.485 31.1246C113.585 31.056 113.628 30.9292 113.723 30.857C113.629 31.2329 113.635 31.7313 113.478 32.0289C113.103 32.7395 112.611 33.2498 112.001 33.5959C111.399 33.9458 110.737 34.1182 109.988 34.1182C109.118 34.1182 108.379 33.9646 107.749 33.6695C107.106 33.3681 106.574 32.9463 106.179 32.4441C105.789 31.9179 105.264 31.6027 104.656 31.4798C103.973 31.3341 103.395 31.4684 102.808 31.8615C102.298 32.2163 101.951 32.7131 101.814 33.3348L101.808 33.3624L101.802 33.39C101.69 34.0737 101.903 34.686 102.306 35.2181C103.23 36.392 104.359 37.2793 105.697 37.8901C107.022 38.4952 108.426 38.8009 109.929 38.8009C111.666 38.8009 113.23 38.3927 114.592 37.5486C115.958 36.7155 117.019 35.5787 117.771 34.1668C118.531 32.7627 118.904 31.2105 118.904 29.5193V23.2512C118.904 21.5045 118.521 19.9338 117.738 18.5702C116.979 17.1881 115.922 16.1023 114.579 15.3357C113.217 14.536 111.681 14.1485 109.988 14.1485ZM39.6149 18.7089C40.4097 18.7089 41.0344 18.8869 41.5025 19.1979C42.0046 19.5315 42.3931 19.99 42.6881 20.6176C42.7299 20.7039 42.7375 20.8207 42.7742 20.9119H35.9522C35.9612 20.8914 35.9612 20.8653 35.9733 20.8451C36.2907 20.1727 36.7552 19.642 37.3311 19.278C37.9239 18.9125 38.6802 18.7089 39.6149 18.7089ZM58.392 18.8228C59.1933 18.8228 59.8722 19.016 60.4783 19.3987C61.078 19.7625 61.5662 20.2753 61.9355 20.9725C62.296 21.6103 62.4852 22.366 62.4852 23.2493C62.4852 24.1103 62.2935 24.8668 61.9222 25.5396C61.5679 26.1938 61.0803 26.7127 60.4783 27.0932C59.8816 27.4553 59.1939 27.6491 58.392 27.6491C57.6126 27.6491 56.918 27.4606 56.3189 27.1066C55.7012 26.7163 55.2113 26.1983 54.8617 25.553C54.5099 24.888 54.3319 24.1203 54.3319 23.2493C54.3319 22.3561 54.512 21.5918 54.8617 20.9457C55.2173 20.2736 55.7064 19.7596 56.3123 19.3921C56.9301 19.0112 57.6132 18.8228 58.392 18.8228ZM77.805 18.8228C78.6064 18.8228 79.2852 19.016 79.8913 19.3987C80.4886 19.7611 80.9661 20.2742 81.3286 20.9591C81.6759 21.6004 81.865 22.3608 81.865 23.2493C81.865 24.1155 81.6779 24.8795 81.3286 25.5396C80.972 26.1979 80.4909 26.7141 79.8913 27.0932C79.2945 27.4553 78.6069 27.6491 77.805 27.6491C77.0256 27.6491 76.322 27.4595 75.7252 27.1066C75.1049 26.7146 74.6029 26.1915 74.2416 25.553C73.8898 24.888 73.7117 24.1203 73.7117 23.2493C73.7117 22.3561 73.894 21.5958 74.2349 20.9658C74.611 20.2846 75.11 19.7612 75.7186 19.3921C76.334 19.0126 77.0262 18.8228 77.805 18.8228ZM109.988 18.8228C110.817 18.8228 111.519 19.0151 112.107 19.3719C112.699 19.7313 113.158 20.2358 113.511 20.9323C113.857 21.5711 114.048 22.3386 114.048 23.2493C114.048 24.16 113.859 24.9309 113.505 25.5865C113.173 26.2274 112.698 26.7347 112.107 27.0932C111.515 27.4522 110.812 27.6491 109.988 27.6491C109.163 27.6491 108.46 27.4522 107.868 27.0932C107.263 26.7258 106.786 26.2223 106.431 25.5664C106.085 24.9276 105.894 24.16 105.894 23.2493C105.894 22.3386 106.08 21.5666 106.431 20.9189C106.789 20.2428 107.271 19.7343 107.868 19.3719C108.456 19.0153 109.158 18.8228 109.988 18.8228Z" fill="#FF7F2A"/>
</svg>
