<svg width="532" height="1030" viewBox="0 0 532 1030" fill="none" xmlns="http://www.w3.org/2000/svg">
<path d="M463.795 0H68.2051C30.5365 0 0 30.5365 0 68.2051V961.692C0 999.361 30.5365 1029.9 68.2051 1029.9H463.795C501.464 1029.9 532 999.361 532 961.692V68.2051C532 30.5365 501.464 0 463.795 0Z" fill="#3E3E3E"/>
<path d="M296.692 61.3846H242.128C236.478 61.3846 231.897 65.9651 231.897 71.6154C231.897 77.2657 236.478 81.8462 242.128 81.8462H296.692C302.343 81.8462 306.923 77.2657 306.923 71.6154C306.923 65.9651 302.343 61.3846 296.692 61.3846Z" fill="#E0E7EC"/>
<path d="M491.154 116H41V907.179H491.154V116Z" fill="#FF7F2A"/>
<path d="M200.446 330.191C198.508 330.213 196.586 330.544 194.75 331.17C192.451 331.955 190.329 333.19 188.503 334.804C186.677 336.419 185.183 338.381 184.107 340.579C183.031 342.777 182.394 345.169 182.232 347.616C182.071 350.064 182.387 352.519 183.165 354.843C183.942 357.167 185.165 359.313 186.762 361.158C188.36 363.004 190.302 364.513 192.477 365.6C211.803 375.264 230.908 380.664 249.574 382.644C218.339 408.918 199.777 435.542 183.424 475.136C182.027 478.522 181.647 482.249 182.332 485.851C183.017 489.454 184.736 492.773 187.275 495.394C189.814 498.014 193.06 499.821 196.608 500.588C200.157 501.354 203.85 501.047 207.226 499.705C249.424 482.909 285.047 474.993 322.641 498.253C326.817 500.836 331.837 501.636 336.596 500.478C341.356 499.32 345.466 496.299 348.023 492.079C349.289 489.987 350.136 487.665 350.514 485.243C350.892 482.821 350.795 480.347 350.228 477.963C349.661 475.579 348.635 473.332 347.209 471.349C345.782 469.366 343.984 467.686 341.916 466.406C306.282 444.358 269.745 444.195 235.171 452.155C253.835 419.561 278.017 400.997 341.48 365.16C345.66 362.794 348.767 358.878 350.145 354.239C351.523 349.601 351.065 344.602 348.867 340.299C346.669 335.995 342.903 332.724 338.364 331.175C333.825 329.626 328.869 329.921 324.541 331.997C314.415 336.868 304.415 340.682 294.36 343.231C294.201 343.902 294.021 344.566 293.821 345.222C293.587 345.992 293.32 346.753 293.03 347.5C292.741 348.244 292.422 348.988 292.076 349.715C291.73 350.44 291.362 351.145 290.967 351.837C290.571 352.532 290.153 353.212 289.705 353.877C289.258 354.539 288.783 355.188 288.286 355.817C287.789 356.448 287.27 357.05 286.733 357.636C286.519 357.868 286.297 358.098 286.074 358.326C287.836 358.892 289.595 359.51 291.349 360.191C291.711 360.331 292.041 360.542 292.322 360.811C292.603 361.081 292.828 361.404 292.985 361.761C293.142 362.119 293.228 362.505 293.237 362.896C293.247 363.287 293.179 363.677 293.04 364.042C292.76 364.777 292.202 365.371 291.49 365.691C290.778 366.011 289.969 366.033 289.241 365.751C272.18 359.132 255.58 358.132 238.759 365.685C238.405 365.845 238.024 365.932 237.638 365.943C237.251 365.954 236.866 365.887 236.504 365.747C236.143 365.607 235.812 365.397 235.531 365.127C235.251 364.858 235.025 364.535 234.868 364.178C234.712 363.82 234.627 363.435 234.618 363.045C234.608 362.654 234.675 362.266 234.815 361.901C234.954 361.537 235.163 361.204 235.43 360.921C235.696 360.638 236.015 360.412 236.369 360.254C237.849 359.589 239.33 358.991 240.812 358.447C240.552 358.186 240.292 357.92 240.038 357.645C239.497 357.056 238.973 356.448 238.475 355.817C237.978 355.188 237.505 354.538 237.059 353.877C236.61 353.211 236.19 352.531 235.794 351.837C235.399 351.144 235.031 350.441 234.686 349.715C234.339 348.988 234.02 348.243 233.731 347.5C233.441 346.752 233.177 345.991 232.942 345.222C232.709 344.457 232.501 343.683 232.324 342.898C232.221 342.442 232.131 341.985 232.05 341.529C224.535 339.208 216.825 336.113 208.852 332.126C206.24 330.819 203.36 330.156 200.446 330.191Z" fill="white"/>
<path d="M263.445 312.003C256.014 312.005 248.855 314.79 243.39 319.805C237.925 324.82 234.553 331.699 233.943 339.075C233.996 339.737 234.071 340.397 234.168 341.054C234.278 341.781 234.415 342.503 234.579 343.219C234.743 343.936 234.934 344.647 235.152 345.35C235.369 346.053 235.613 346.748 235.883 347.433C236.153 348.118 236.449 348.792 236.769 349.454C237.089 350.116 237.434 350.766 237.802 351.403C238.171 352.04 238.564 352.663 238.98 353.27C239.397 353.878 239.836 354.469 240.296 355.044C240.757 355.619 241.239 356.177 241.741 356.716C242.051 357.047 242.369 357.37 242.695 357.687C242.717 357.682 242.735 357.677 242.758 357.668C243.065 357.591 243.373 357.513 243.681 357.44C243.988 357.366 244.294 357.295 244.602 357.226C244.909 357.156 245.218 357.089 245.525 357.023C245.833 356.957 246.141 356.892 246.448 356.83C246.756 356.767 247.062 356.706 247.369 356.648C247.677 356.59 247.985 356.534 248.293 356.478C248.6 356.423 248.909 356.369 249.216 356.317C249.524 356.266 249.83 356.218 250.137 356.17C250.445 356.123 250.753 356.075 251.06 356.031C251.368 355.984 251.674 355.946 251.981 355.905C252.289 355.862 252.597 355.825 252.905 355.788C253.52 355.714 254.134 355.646 254.749 355.586C255.364 355.526 255.981 355.474 256.596 355.428C257.211 355.381 257.825 355.344 258.44 355.311C259.055 355.278 259.669 355.253 260.284 355.234C260.899 355.215 261.513 355.201 262.128 355.197C262.743 355.192 263.36 355.192 263.975 355.199C264.59 355.208 265.204 355.222 265.819 355.241C266.434 355.265 267.049 355.29 267.664 355.323C268.279 355.356 268.893 355.398 269.508 355.444C270.123 355.491 270.74 355.541 271.355 355.6C271.97 355.659 272.584 355.723 273.199 355.794C273.814 355.865 274.428 355.941 275.043 356.024C275.658 356.107 276.275 356.197 276.89 356.292C277.505 356.386 278.119 356.486 278.734 356.592C279.349 356.699 279.963 356.812 280.578 356.929C281.193 357.047 281.808 357.172 282.423 357.302C283.011 357.426 283.601 357.556 284.19 357.69C284.517 357.372 284.836 357.046 285.148 356.713C285.651 356.174 286.132 355.616 286.593 355.041C287.054 354.466 287.493 353.874 287.909 353.267C288.325 352.659 288.718 352.037 289.087 351.4C289.456 350.763 289.8 350.113 290.12 349.451C290.441 348.789 290.736 348.115 291.006 347.43C291.276 346.745 291.52 346.05 291.738 345.346C291.955 344.644 292.146 343.933 292.31 343.216C292.474 342.5 292.612 341.778 292.722 341.051C292.82 340.383 292.896 339.712 292.948 339.039C292.331 331.668 288.955 324.797 283.49 319.789C278.025 314.781 270.871 312.004 263.445 312.003Z" fill="white"/>
</svg>
