<svg width="68" height="70" viewBox="0 0 68 70" fill="none" xmlns="http://www.w3.org/2000/svg">
<path d="M66.7613 70L54.3739 19.319L51.1532 33.871C55.943 33.871 59.9895 32.3656 63.2928 29.3548C66.4309 26.3441 68 22.2461 68 17.0609C68 12.043 66.4309 7.94504 63.2928 4.76703C59.9895 1.58901 56.0256 0 51.4009 0C46.6112 0 42.7298 1.67264 39.7568 5.01792C36.7839 8.19594 35.2974 12.2103 35.2974 17.0609C35.2974 18.7336 35.4626 20.4062 35.7929 22.0788C35.958 23.5842 36.371 25.4241 37.0316 27.5986C37.5271 29.6057 38.3529 32.1147 39.5091 35.1254L51.1532 70H66.7613Z" fill="#FFE5D5"/>
<path d="M31.4639 70L19.0765 19.319L15.8558 33.871C20.6456 33.871 24.6921 32.3656 27.9954 29.3548C31.1335 26.3441 32.7026 22.2461 32.7026 17.0609C32.7026 12.043 31.1335 7.94504 27.9954 4.76703C24.6921 1.58901 20.7282 0 16.1036 0C11.3138 0 7.43241 1.67264 4.45945 5.01792C1.48648 8.19594 0 12.2103 0 17.0609C0 18.7336 0.165161 20.4062 0.495499 22.0788C0.66066 23.5842 1.07357 25.4241 1.73423 27.5986C2.22973 29.6057 3.05555 32.1147 4.2117 35.1254L15.8558 70H31.4639Z" fill="#FFE5D5"/>
</svg>
