<svg width="648" height="515" viewBox="0 0 648 515" fill="none" xmlns="http://www.w3.org/2000/svg">
<g clip-path="url(#clip0_23_375)">
<path d="M27.4378 249.735L71.8153 270.942L211.372 337.631L225.822 344.533L218.429 360.175L177.409 446.955L70.6754 395.827L16.3326 369.794L15.6944 369.492L-0.00209143 307.789L27.4378 249.735Z" fill="#3F964F"/>
<path d="M11.1817 328.742L29.7572 289.448C39.2721 293.949 50.6395 289.884 55.14 280.362L184.579 342.553C180.074 352.075 184.144 363.445 193.663 367.949L175.09 407.234C165.573 402.737 154.205 406.807 149.704 416.325L20.2692 354.133C24.7698 344.611 20.7045 333.241 11.1817 328.742Z" fill="#4EAD60"/>
<path d="M68.2077 333.316C75.6788 317.509 94.5459 310.747 110.349 318.219C126.151 325.69 132.903 344.563 125.432 360.37C117.96 376.177 99.0928 382.939 83.2908 375.467C67.4887 367.995 60.7357 349.123 68.2077 333.316Z" fill="#3F964F"/>
<path d="M0.000732422 307.786L41.0112 335.375L16.3358 369.793L15.9191 370.372L15.6957 369.491L0.000732422 307.786Z" fill="#3F964F"/>
<path d="M30.2624 376.376L34.3229 360.885L25.6957 356.739L16.3368 369.792L30.2624 376.376Z" fill="#32783F"/>
<path d="M34.3208 360.887L41.0095 335.376L25.6936 356.741L34.3208 360.887Z" fill="#3E8A4D"/>
<path d="M16.0036 318.545L17.1114 316.197L1.81945 303.93L0.00125192 307.782L16.0036 318.545Z" fill="#32783F"/>
<path d="M41.0082 335.375L17.1089 316.202L16.0011 318.549L41.0082 335.375Z" fill="#3E8A4D"/>
<path d="M41.01 335.374L16.003 318.549L0.000732422 307.786L41.01 335.374Z" fill="#32783F"/>
<path d="M78.8979 399.768L80.3614 383.01L72.1369 379.059L70.6756 395.829L78.8979 399.768ZM85.8163 295.1L79.3864 274.558L71.8155 270.94L78.2374 291.459L85.8163 295.1Z" fill="#32783F"/>
<path d="M80.3621 383.011L80.4603 381.911C80.657 379.659 81.9247 377.601 84.0592 375.812C83.8019 375.697 83.5461 375.582 83.2924 375.463C80.5285 374.155 78.0396 372.495 75.8566 370.567C73.7813 372.342 72.5485 374.369 72.3545 376.588L72.1379 379.06L80.3621 383.011ZM86.2316 317.004C87.9328 316.4 89.6848 315.942 91.4654 315.634C91.711 315.592 91.9562 315.55 92.2029 315.507L85.8156 295.093L78.2368 291.452L86.2302 316.996" fill="#3E8A4D"/>
<path d="M84.0591 375.812C87.527 372.9 93.2769 370.686 100.403 369.455C103.026 369.002 105.84 368.679 108.794 368.504L92.2039 315.515C91.9573 315.558 91.712 315.6 91.4664 315.642C89.6858 315.95 87.9339 316.408 86.2328 317.012L100.691 363.193C97.7361 363.368 94.9261 363.687 92.2989 364.141C85.1047 365.383 79.3149 367.623 75.8581 370.575C78.041 372.502 80.5299 374.163 83.2937 375.47C83.5474 375.59 83.8032 375.704 84.0605 375.82" fill="#32783F"/>
<path d="M171.062 188.3L250.085 440.745L141.997 474.606L62.9751 222.157L171.062 188.3Z" fill="#3F964F"/>
<path d="M101.986 229.921L143.449 216.934C146.595 226.986 157.294 232.579 167.339 229.432L223.579 409.077C213.526 412.227 207.932 422.927 211.079 432.978L169.611 445.966C166.466 435.915 155.771 430.32 145.722 433.469L89.4836 253.822C99.5325 250.675 105.132 239.972 101.986 229.921Z" fill="#4EAD60"/>
<path d="M145.235 302.713C161.917 297.49 179.674 306.776 184.898 323.46C190.122 340.144 180.83 357.91 164.149 363.138C147.469 368.364 129.711 359.071 124.487 342.386C119.263 325.703 128.555 307.94 145.235 302.713Z" fill="#3F964F"/>
<path d="M122.102 368.707L233.243 378.405L223.385 491.26L112.247 481.562L119.182 402.14C96.9653 400.119 79.6602 391.098 80.4623 381.916C81.2637 372.735 99.873 366.848 122.102 368.707Z" fill="#3F964F"/>
<path d="M205.546 392.84L198.612 472.245L73.6857 461.342L80.6194 381.937L205.546 392.84Z" fill="#4EAD60"/>
<path d="M149.271 399.552C164.825 400.905 176.334 414.619 174.975 430.176C173.616 445.734 159.906 457.25 144.348 455.893C128.795 454.535 117.288 440.817 118.643 425.261C120.003 409.702 133.716 398.19 149.271 399.552Z" fill="#3F964F"/>
<path d="M112.251 481.559L113.71 464.834L73.6879 461.34L79.0592 399.844L78.9027 399.764L72.0655 478.052L112.25 481.555" fill="#B6DDFF"/>
<path d="M79.0568 399.844L80.4884 383.423C80.4672 383.3 80.4662 383.177 80.4559 383.056L80.3637 383.007L78.9009 399.769L79.0568 399.844Z" fill="#286032"/>
<path d="M80.4528 383.056C80.4188 382.677 80.4291 382.292 80.4615 381.91L80.3633 383.01L80.4548 383.055" fill="#326E3E"/>
<path d="M123.631 482.549L125.092 465.824L113.706 464.834L112.247 481.558L123.631 482.549ZM132.026 386.416L133.487 369.691L125.546 369L122.103 368.701C114.199 368.04 106.755 368.358 100.404 369.455C88.8904 371.444 80.9786 375.992 80.4611 381.91C80.4328 382.292 80.4236 382.676 80.4525 383.055C80.4629 383.176 80.474 383.297 80.485 383.421L80.6161 381.933L132.024 386.417" fill="#32783F"/>
<path d="M125.093 465.825L126.685 447.579C121.073 441.879 117.897 433.852 118.644 425.257C119.396 416.665 123.919 409.307 130.433 404.67L132.027 386.419L80.6198 381.935L80.4888 383.423L79.0572 399.845L73.686 461.341L113.707 464.835L125.093 465.825Z" fill="#3E8A4D"/>
<path d="M126.685 447.582L130.433 404.672C123.919 409.31 119.396 416.668 118.644 425.26C117.897 433.855 121.073 441.882 126.685 447.582Z" fill="#32783F"/>
<path d="M80.4644 381.912C79.6622 391.094 96.968 400.115 119.185 402.136L109.33 514.997C87.1141 512.977 69.8066 503.959 70.6112 494.773L80.4691 381.915" fill="#3F964F"/>
<path d="M78.6853 402.278C78.3301 406.338 81.7001 410.232 87.0841 412.778C86.6953 419.019 91.0425 424.434 96.9223 424.945L96.954 424.94L91.9665 482L91.9466 482.003C86.5442 481.532 81.7032 485.358 80.406 490.794C74.9495 488.252 71.5248 484.328 71.8831 480.237L78.6912 402.276" fill="#4EAD60"/>
<path d="M449.012 55.1641H597.1C603.68 55.1641 609.013 49.8296 609.013 43.2472V11.9145C609.013 5.3346 603.68 -0.00244141 597.1 -0.00244141H449.012C442.431 -0.00244141 437.099 5.3346 437.099 11.9145V43.2472C437.099 49.8296 442.431 55.1641 449.012 55.1641Z" fill="#E3EAFF"/>
<path d="M555.61 19.8197V35.3421C555.61 39.5265 558.999 42.9155 563.181 42.9155H592.522C594.062 42.9155 595.497 42.4542 596.695 41.6595C598.74 40.3057 600.091 37.9821 600.091 35.3421V19.8197C600.091 15.6362 596.701 12.2463 592.522 12.2463H563.181C561.475 12.2463 559.897 12.813 558.632 13.7698C556.797 15.1478 555.61 17.3462 555.61 19.8197Z" fill="#FABA23"/>
<path d="M495.802 33.8981H544.491C547.977 33.8981 550.803 31.0692 550.803 27.5808C550.803 24.0959 547.977 21.2703 544.491 21.2703H495.802C492.316 21.2703 489.49 24.0959 489.49 27.5808C489.49 31.0692 492.316 33.8981 495.802 33.8981Z" fill="#95A6DB"/>
<path d="M452.329 33.8981H476.728C480.214 33.8981 483.04 31.0692 483.04 27.5808C483.04 24.0959 480.214 21.2703 476.728 21.2703H452.329C448.845 21.2703 446.02 24.0959 446.02 27.5808C446.02 31.0692 448.845 33.8981 452.329 33.8981Z" fill="#4EAD60"/>
<path d="M558.633 13.7698L596.696 41.6595C598.741 40.3057 600.092 37.9821 600.092 35.3421V19.8197C600.092 15.6362 596.702 12.2463 592.523 12.2463H563.182C561.476 12.2463 559.898 12.813 558.633 13.7698Z" fill="#FAD332"/>
<path d="M565.456 34.1884C565.456 37.0017 567.734 39.2802 570.546 39.2802C573.358 39.2802 575.638 37.0017 575.638 34.1884C575.638 31.3752 573.358 29.0933 570.546 29.0933C567.734 29.0933 565.456 31.3752 565.456 34.1884Z" fill="#E62552"/>
<path d="M559.41 34.1884C559.41 37.0017 561.688 39.2802 564.5 39.2802C567.311 39.2802 569.592 37.0017 569.592 34.1884C569.592 31.3752 567.311 29.0933 564.5 29.0933C561.688 29.0933 559.41 31.3752 559.41 34.1884Z" fill="#95A6DB"/>
<path d="M488 122.005H636.088C642.668 122.005 648.001 116.672 648.001 110.089V78.7592C648.001 72.1767 642.668 66.8423 636.088 66.8423H488C481.419 66.8423 476.087 72.1767 476.087 78.7592V110.089C476.087 116.672 481.419 122.005 488 122.005Z" fill="#E3EAFF"/>
<path d="M594.598 86.6644V102.187C594.598 106.37 597.987 109.76 602.169 109.76H631.51C633.051 109.76 634.486 109.298 635.683 108.504C637.729 107.15 639.079 104.827 639.079 102.187V86.6644C639.079 82.48 635.69 79.0911 631.51 79.0911H602.169C600.463 79.0911 598.885 79.6577 597.62 80.6145C595.785 81.9917 594.598 84.19 594.598 86.6644Z" fill="#D6224C"/>
<path d="M534.79 100.738H583.48C586.965 100.738 589.792 97.9121 589.792 94.4272C589.792 90.9388 586.965 88.1099 583.48 88.1099H534.79C531.304 88.1099 528.478 90.9388 528.478 94.4272C528.478 97.9121 531.304 100.738 534.79 100.738Z" fill="#95A6DB"/>
<path d="M491.317 100.738H515.717C519.202 100.738 522.029 97.9121 522.029 94.4272C522.029 90.9388 519.202 88.1099 515.717 88.1099H491.317C487.833 88.1099 485.008 90.9388 485.008 94.4272C485.008 97.9121 487.833 100.738 491.317 100.738Z" fill="#4EAD60"/>
<path d="M597.621 80.6145L635.684 108.504C637.73 107.15 639.08 104.827 639.08 102.187V86.6644C639.08 82.48 635.691 79.0911 631.511 79.0911H602.17C600.464 79.0911 598.886 79.6577 597.621 80.6145Z" fill="#E62552"/>
<path d="M604.444 101.032C604.444 103.841 606.723 106.121 609.534 106.121C612.347 106.121 614.626 103.841 614.626 101.032C614.626 98.2192 612.347 95.9407 609.534 95.9407C606.723 95.9407 604.444 98.2192 604.444 101.032Z" fill="#FAC832"/>
<path d="M598.398 101.032C598.398 103.841 600.677 106.121 603.488 106.121C606.3 106.121 608.58 103.841 608.58 101.032C608.58 98.2192 606.3 95.9407 603.488 95.9407C600.677 95.9407 598.398 98.2192 598.398 101.032Z" fill="#95A6DB"/>
<path d="M449.012 188.849H597.1C603.68 188.849 609.013 183.511 609.013 176.932V145.599C609.013 139.016 603.68 133.682 597.1 133.682H449.012C442.431 133.682 437.099 139.016 437.099 145.599V176.932C437.099 183.511 442.431 188.849 449.012 188.849Z" fill="#E3EAFF"/>
<path d="M555.61 153.504V169.027C555.61 173.211 558.999 176.6 563.181 176.6H592.522C594.062 176.6 595.497 176.139 596.695 175.344C598.74 173.99 600.091 171.667 600.091 169.027V153.504C600.091 149.321 596.701 145.931 592.522 145.931H563.181C561.475 145.931 559.897 146.498 558.632 147.454C556.797 148.832 555.61 151.031 555.61 153.504Z" fill="#FABA23"/>
<path d="M495.802 167.581H544.491C547.977 167.581 550.803 164.755 550.803 161.267C550.803 157.779 547.977 154.95 544.491 154.95H495.802C492.316 154.95 489.49 157.779 489.49 161.267C489.49 164.755 492.316 167.581 495.802 167.581Z" fill="#95A6DB"/>
<path d="M452.329 167.581H476.728C480.214 167.581 483.04 164.755 483.04 161.267C483.04 157.779 480.214 154.95 476.728 154.95H452.329C448.845 154.95 446.02 157.779 446.02 161.267C446.02 164.755 448.845 167.581 452.329 167.581Z" fill="#4EAD60"/>
<path d="M558.633 147.454L596.696 175.344C598.741 173.99 600.092 171.667 600.092 169.027V153.504C600.092 149.321 596.702 145.931 592.523 145.931H563.182C561.476 145.931 559.898 146.498 558.633 147.454Z" fill="#FAD332"/>
<path d="M565.456 167.872C565.456 170.686 567.734 172.967 570.546 172.967C573.358 172.967 575.638 170.686 575.638 167.872C575.638 165.059 573.358 162.781 570.546 162.781C567.734 162.781 565.456 165.059 565.456 167.872Z" fill="#E62552"/>
<path d="M559.41 167.872C559.41 170.686 561.688 172.967 564.5 172.967C567.311 172.967 569.592 170.686 569.592 167.872C569.592 165.059 567.311 162.781 564.5 162.781C561.688 162.781 559.41 165.059 559.41 167.872Z" fill="#95A6DB"/>
<path d="M123.339 119.673L134.604 86.4862C134.604 86.4862 154.806 84.8776 167.789 106.447C175.835 119.818 196.308 124.045 196.308 124.045L184.978 157.407C184.978 157.407 158.752 154.86 149.81 139.421C140.357 123.092 123.339 119.673 123.339 119.673Z" fill="#D4DEFF"/>
<path d="M171.183 130.812C166.522 136.265 157.595 136.279 151.236 130.844C144.872 125.409 143.497 116.583 148.153 111.131C152.815 105.678 161.741 105.664 168.1 111.099C174.459 116.534 175.839 125.36 171.183 130.812Z" fill="#E3EAFF"/>
<path d="M276.889 473.036L410.36 473.121C431.415 473.135 448.495 456.073 448.508 435.015L448.712 108.276C448.726 87.2161 431.67 70.1337 410.619 70.1203L277.143 70.0356C256.092 70.0222 239.013 87.0833 238.999 108.143L238.791 434.882C238.777 455.941 255.833 473.023 276.889 473.036Z" fill="#2C2858"/>
<path d="M275.509 466.504L411.746 466.593C426.552 466.603 438.556 454.605 438.57 439.796L438.78 105.9C438.789 91.0917 426.794 79.0783 411.993 79.0692L275.755 78.9829C260.95 78.9738 248.946 90.9712 248.932 105.78L248.722 439.674C248.713 454.482 260.708 466.498 275.509 466.504Z" fill="#FFB685"/>
<path d="M449.949 176.95C453.232 176.95 455.896 174.287 455.896 171.002V140.153C455.896 136.865 453.232 134.205 449.949 134.205C446.662 134.205 444 136.865 444 140.153V171.002C444 174.287 446.662 176.95 449.949 176.95Z" fill="#2C2858"/>
<path d="M237.854 176.951C241.144 176.951 243.808 174.287 243.808 171.002V140.154C243.808 136.868 241.144 134.205 237.854 134.205C234.574 134.205 231.91 136.868 231.91 140.154V171.002C231.91 174.287 234.574 176.951 237.854 176.951Z" fill="#2C2858"/>
<path d="M449.949 222.581C453.232 222.581 455.896 219.917 455.896 216.632V185.784C455.896 182.499 453.232 179.835 449.949 179.835C446.662 179.835 444 182.499 444 185.784V216.632C444 219.917 446.662 222.581 449.949 222.581Z" fill="#2C2858"/>
<path d="M398.365 67.7615C399.862 67.7615 401.077 66.5493 401.077 65.0478C401.077 62.8394 401.132 60.6018 401.246 58.4008C401.323 56.9066 400.173 55.6284 398.676 55.5515C397.182 55.4819 395.904 56.6282 395.827 58.1261C395.71 60.415 395.652 62.7442 395.652 65.0478C395.652 66.5493 396.867 67.7615 398.365 67.7615Z" fill="#95A6DB"/>
<path d="M435.102 67.7666C436.597 67.7666 437.816 66.55 437.816 65.0515C437.816 62.8554 437.892 60.6387 438.047 58.4632C438.153 56.9681 437.03 55.669 435.532 55.5625C434.034 55.4525 432.742 56.5832 432.632 58.0782C432.47 60.3843 432.388 62.7282 432.388 65.0515C432.388 66.55 433.601 67.7666 435.102 67.7666Z" fill="#95A6DB"/>
<path d="M398.848 69.3535H398.882C399.404 69.346 399.893 69.094 400.209 68.6729L417.528 45.3718C418.089 44.6196 417.931 43.5554 417.179 42.9988C416.431 42.4385 415.367 42.5964 414.807 43.3485L398.795 64.8896L382.844 45.086C382.257 44.3564 381.193 44.2436 380.464 44.8303C379.735 45.4169 379.618 46.4849 380.205 47.2145L397.528 68.7217C397.851 69.1241 398.336 69.3535 398.848 69.3535Z" fill="#95A6DB"/>
<path d="M279.523 434.949V441.824C279.523 444.508 281.701 446.687 284.382 446.687H368.262C370.947 446.687 373.125 444.508 373.125 441.824V434.949C373.125 433.752 372.697 432.659 371.975 431.81C371.083 430.755 369.749 430.087 368.262 430.087H284.382C282.899 430.087 281.565 430.755 280.669 431.81C279.951 432.659 279.523 433.752 279.523 434.949Z" fill="#FAD332"/>
<path d="M366.037 446.687H368.474V430.087H366.037V446.687Z" fill="#FABA23"/>
<path d="M355.819 446.687H358.256V430.087H355.819V446.687Z" fill="#FABA23"/>
<path d="M345.601 446.687H348.038V430.087H345.601V446.687Z" fill="#FABA23"/>
<path d="M335.383 446.687H337.817V430.087H335.383V446.687Z" fill="#FABA23"/>
<path d="M325.17 446.687H327.61V430.087H325.17V446.687Z" fill="#FABA23"/>
<path d="M314.953 446.687H317.393V430.087H314.953V446.687Z" fill="#FABA23"/>
<path d="M304.736 446.687H307.17V430.087H304.736V446.687Z" fill="#FABA23"/>
<path d="M294.523 446.687H296.96V430.087H294.523V446.687Z" fill="#FABA23"/>
<path d="M284.305 446.687H286.742V430.087H284.305V446.687Z" fill="#FABA23"/>
<path d="M280.666 431.81H371.974C371.079 430.755 369.747 430.086 368.258 430.086H284.382C282.893 430.086 281.561 430.755 280.666 431.81Z" fill="#FABA23"/>
<path d="M280.666 444.963H371.974C371.079 446.018 369.747 446.687 368.258 446.687H284.382C282.893 446.687 281.561 446.018 280.666 444.963Z" fill="#FABA23"/>
<path d="M273.65 418.348V425.222C273.65 427.91 275.828 430.088 278.513 430.088H362.392C365.073 430.088 367.251 427.91 367.251 425.222V418.348C367.251 417.15 366.824 416.057 366.105 415.209C365.21 414.153 363.883 413.485 362.392 413.485H278.513C277.023 413.485 275.691 414.153 274.801 415.209C274.082 416.057 273.65 417.15 273.65 418.348Z" fill="#FAD332"/>
<path d="M360.171 430.083H362.606V413.483H360.171V430.083Z" fill="#FABA23"/>
<path d="M349.953 430.083H352.388V413.483H349.953V430.083Z" fill="#FABA23"/>
<path d="M339.735 430.083H342.169V413.483H339.735V430.083Z" fill="#FABA23"/>
<path d="M329.523 430.083H331.959V413.483H329.523V430.083Z" fill="#FABA23"/>
<path d="M319.305 430.083H321.741V413.484H319.305V430.083Z" fill="#FABA23"/>
<path d="M309.086 430.083H311.522V413.484H309.086V430.083Z" fill="#FABA23"/>
<path d="M298.869 430.083H301.303V413.484H298.869V430.083Z" fill="#FABA23"/>
<path d="M288.651 430.083H291.086V413.483H288.651V430.083Z" fill="#FABA23"/>
<path d="M278.433 430.083H280.868V413.484H278.433V430.083Z" fill="#FABA23"/>
<path d="M274.8 415.209H366.108C365.21 414.154 363.88 413.485 362.392 413.485H278.516C277.023 413.485 275.694 414.154 274.8 415.209Z" fill="#FABA23"/>
<path d="M274.8 428.36H366.108C365.21 429.415 363.88 430.083 362.392 430.083H278.516C277.023 430.083 275.694 429.415 274.8 428.36Z" fill="#FABA23"/>
<path d="M278.2 401.776V408.65C278.2 411.338 280.378 413.513 283.064 413.513H366.942C369.627 413.513 371.805 411.338 371.805 408.65V401.776C371.805 400.578 371.371 399.485 370.657 398.637C369.759 397.581 368.431 396.913 366.942 396.913H283.064C281.574 396.913 280.242 397.581 279.348 398.637C278.63 399.485 278.2 400.578 278.2 401.776Z" fill="#FAD332"/>
<path d="M364.721 413.513H367.155V396.913H364.721V413.513Z" fill="#FABA23"/>
<path d="M354.503 413.513H356.937V396.913H354.503V413.513Z" fill="#FABA23"/>
<path d="M344.285 413.513H346.723V396.913H344.285V413.513Z" fill="#FABA23"/>
<path d="M334.067 413.513H336.502V396.913H334.067V413.513Z" fill="#FABA23"/>
<path d="M323.851 413.513H326.287V396.913H323.851V413.513Z" fill="#FABA23"/>
<path d="M313.637 413.513H316.073V396.913H313.637V413.513Z" fill="#FABA23"/>
<path d="M303.419 413.513H305.854V396.913H303.419V413.513Z" fill="#FABA23"/>
<path d="M293.201 413.513H295.637V396.913H293.201V413.513Z" fill="#FABA23"/>
<path d="M282.983 413.513H285.42V396.913H282.983V413.513Z" fill="#FABA23"/>
<path d="M279.35 398.636H370.657C369.76 397.581 368.43 396.913 366.943 396.913H283.064C281.577 396.913 280.243 397.581 279.35 398.636Z" fill="#FABA23"/>
<path d="M279.35 411.789H370.657C369.76 412.845 368.43 413.513 366.943 413.513H283.064C281.577 413.513 280.243 412.845 279.35 411.789Z" fill="#FABA23"/>
<path d="M276.326 385.505V392.38C276.326 395.064 278.505 397.242 281.189 397.242H365.067C367.752 397.242 369.931 395.064 369.931 392.38V385.505C369.931 384.307 369.5 383.211 368.784 382.363C367.892 381.311 366.557 380.639 365.067 380.639H281.189C279.7 380.639 278.369 381.311 277.477 382.363C276.761 383.211 276.326 384.307 276.326 385.505Z" fill="#FAD332"/>
<path d="M362.846 397.242H365.283V380.639H362.846V397.242Z" fill="#FABA23"/>
<path d="M352.629 397.242H355.066V380.639H352.629V397.242Z" fill="#FABA23"/>
<path d="M342.417 397.242H344.854V380.639H342.417V397.242Z" fill="#FABA23"/>
<path d="M332.199 397.242H334.633V380.639H332.199V397.242Z" fill="#FABA23"/>
<path d="M321.98 397.242H324.415V380.639H321.98V397.242Z" fill="#FABA23"/>
<path d="M311.763 397.242H314.197V380.639H311.763V397.242Z" fill="#FABA23"/>
<path d="M301.545 397.242H303.982V380.639H301.545V397.242Z" fill="#FABA23"/>
<path d="M291.327 397.242H293.761V380.639H291.327V397.242Z" fill="#FABA23"/>
<path d="M281.108 397.242H283.543V380.639H281.108V397.242Z" fill="#FABA23"/>
<path d="M277.476 382.363H368.781C367.89 381.311 366.557 380.639 365.07 380.639H281.191C279.699 380.639 278.366 381.311 277.476 382.363Z" fill="#FABA23"/>
<path d="M277.476 395.518H368.781C367.89 396.574 366.557 397.242 365.07 397.242H281.191C279.699 397.242 278.366 396.574 277.476 395.518Z" fill="#FABA23"/>
<path d="M286.788 368.651V375.522C286.788 378.21 288.966 380.388 291.65 380.388H375.528C378.212 380.388 380.394 378.21 380.394 375.522V368.651C380.394 367.453 379.961 366.357 379.242 365.509C378.35 364.453 377.017 363.785 375.528 363.785H291.65C290.165 363.785 288.832 364.453 287.936 365.509C287.221 366.357 286.788 367.453 286.788 368.651Z" fill="#FAD332"/>
<path d="M373.304 380.388H375.738V363.785H373.304V380.388Z" fill="#FABA23"/>
<path d="M363.084 380.388H365.52V363.784H363.084V380.388Z" fill="#FABA23"/>
<path d="M352.866 380.388H355.302V363.785H352.866V380.388Z" fill="#FABA23"/>
<path d="M342.654 380.393H345.093V363.789H342.654V380.393Z" fill="#FABA23"/>
<path d="M332.437 380.388H334.874V363.785H332.437V380.388Z" fill="#FABA23"/>
<path d="M322.219 380.388H324.657V363.784H322.219V380.388Z" fill="#FABA23"/>
<path d="M312.006 380.393H314.44V363.789H312.006V380.393Z" fill="#FABA23"/>
<path d="M301.788 380.388H304.224V363.785H301.788V380.388Z" fill="#FABA23"/>
<path d="M291.569 380.388H294.002V363.785H291.569V380.388Z" fill="#FABA23"/>
<path d="M287.932 365.508H379.237C378.347 364.453 377.012 363.785 375.525 363.785H291.645C290.162 363.785 288.827 364.453 287.932 365.508Z" fill="#FABA23"/>
<path d="M287.932 378.661H379.237C378.347 379.716 377.012 380.388 375.525 380.388H291.645C290.162 380.388 288.827 379.716 287.932 378.661Z" fill="#FABA23"/>
<path d="M276.496 352.243V359.117C276.496 361.801 278.675 363.98 281.359 363.98H365.234C367.922 363.98 370.101 361.801 370.101 359.117V352.243C370.101 351.045 369.666 349.952 368.95 349.104C368.058 348.049 366.723 347.38 365.234 347.38H281.359C279.87 347.38 278.534 348.049 277.643 349.104C276.927 349.952 276.496 351.045 276.496 352.243Z" fill="#FAD332"/>
<path d="M363.013 363.98H365.449V347.38H363.013V363.98Z" fill="#FABA23"/>
<path d="M352.795 363.98H355.231V347.38H352.795V363.98Z" fill="#FABA23"/>
<path d="M342.581 363.98H345.017V347.38H342.581V363.98Z" fill="#FABA23"/>
<path d="M332.364 363.98H334.798V347.38H332.364V363.98Z" fill="#FABA23"/>
<path d="M322.147 363.98H324.581V347.38H322.147V363.98Z" fill="#FABA23"/>
<path d="M311.928 363.98H314.362V347.38H311.928V363.98Z" fill="#FABA23"/>
<path d="M301.71 363.98H304.151V347.38H301.71V363.98Z" fill="#FABA23"/>
<path d="M291.492 363.98H293.93V347.38H291.492V363.98Z" fill="#FABA23"/>
<path d="M281.28 363.98H283.715V347.38H281.28V363.98Z" fill="#FABA23"/>
<path d="M277.641 349.103H368.947C368.057 348.048 366.724 347.379 365.233 347.379H281.355C279.864 347.379 278.531 348.048 277.641 349.103Z" fill="#FABA23"/>
<path d="M277.641 362.256H368.947C368.057 363.311 366.724 363.98 365.233 363.98H281.355C279.864 363.98 278.531 363.311 277.641 362.256Z" fill="#FABA23"/>
<path d="M280.146 335.588V342.462C280.146 345.15 282.322 347.328 285.01 347.328H368.886C371.569 347.328 373.75 345.15 373.75 342.462V335.588C373.75 334.393 373.317 333.298 372.6 332.449C371.709 331.394 370.376 330.726 368.886 330.726H285.01C283.52 330.726 282.187 331.394 281.295 332.449C280.579 333.298 280.146 334.393 280.146 335.588Z" fill="#FAD332"/>
<path d="M366.662 347.328H369.096V330.725H366.662V347.328Z" fill="#FABA23"/>
<path d="M356.449 347.328H358.884V330.725H356.449V347.328Z" fill="#FABA23"/>
<path d="M346.232 347.328H348.666V330.725H346.232V347.328Z" fill="#FABA23"/>
<path d="M336.014 347.328H338.451V330.726H336.014V347.328Z" fill="#FABA23"/>
<path d="M325.795 347.328H328.233V330.725H325.795V347.328Z" fill="#FABA23"/>
<path d="M315.577 347.328H318.015V330.725H315.577V347.328Z" fill="#FABA23"/>
<path d="M305.359 347.328H307.796V330.726H305.359V347.328Z" fill="#FABA23"/>
<path d="M295.141 347.328H297.575V330.725H295.141V347.328Z" fill="#FABA23"/>
<path d="M284.93 347.328H287.365V330.725H284.93V347.328Z" fill="#FABA23"/>
<path d="M281.296 332.449H372.602C371.712 331.394 370.377 330.725 368.89 330.725H285.009C283.521 330.725 282.191 331.394 281.296 332.449Z" fill="#FABA23"/>
<path d="M281.296 345.605H372.602C371.712 346.657 370.377 347.328 368.89 347.328H285.009C283.521 347.328 282.191 346.657 281.296 345.605Z" fill="#FABA23"/>
<path d="M275.132 319.081V325.956C275.132 328.641 277.31 330.819 279.994 330.819H363.871C366.556 330.819 368.734 328.641 368.734 325.956V319.081C368.734 317.884 368.303 316.791 367.585 315.943C366.692 314.887 365.359 314.219 363.871 314.219H279.994C278.502 314.219 277.173 314.887 276.28 315.943C275.563 316.791 275.132 317.884 275.132 319.081Z" fill="#FAD332"/>
<path d="M361.653 330.819H364.088V314.219H361.653V330.819Z" fill="#FABA23"/>
<path d="M351.435 330.819H353.87V314.219H351.435V330.819Z" fill="#FABA23"/>
<path d="M341.217 330.819H343.654V314.219H341.217V330.819Z" fill="#FABA23"/>
<path d="M330.998 330.819H333.432V314.219H330.998V330.819Z" fill="#FABA23"/>
<path d="M320.781 330.819H323.216V314.22H320.781V330.819Z" fill="#FABA23"/>
<path d="M310.563 330.819H312.998V314.219H310.563V330.819Z" fill="#FABA23"/>
<path d="M300.351 330.819H302.788V314.22H300.351V330.819Z" fill="#FABA23"/>
<path d="M290.132 330.819H292.566V314.219H290.132V330.819Z" fill="#FABA23"/>
<path d="M279.914 330.819H282.349V314.219H279.914V330.819Z" fill="#FABA23"/>
<path d="M276.282 315.942H367.59C366.698 314.887 365.363 314.219 363.874 314.219H279.994C278.505 314.219 277.178 314.887 276.282 315.942Z" fill="#FABA23"/>
<path d="M276.282 329.095H367.59C366.698 330.151 365.363 330.819 363.874 330.819H279.994C278.505 330.819 277.178 330.151 276.282 329.095Z" fill="#FABA23"/>
<path d="M323.659 412.77C332.152 439.085 360.372 453.529 386.676 445.033C412.985 436.533 427.427 408.311 418.931 381.993C410.434 355.675 382.218 341.23 355.914 349.73C329.605 358.23 315.163 386.452 323.659 412.77Z" fill="#FABA23"/>
<path d="M332.169 410.023C339.151 431.641 362.325 443.504 383.934 436.52C386.186 435.794 388.337 434.889 390.37 433.826C393.816 432.031 396.92 429.788 399.641 427.192C400.671 426.208 401.649 425.173 402.573 424.098C409.311 416.185 412.932 405.863 412.37 395.222C412.187 391.74 411.551 388.221 410.427 384.743C405.221 368.622 391.009 357.923 375.156 356.423C369.754 355.911 364.158 356.467 358.663 358.242C353.905 359.779 349.62 362.097 345.909 365.018C344.789 365.897 343.713 366.83 342.699 367.818C339.941 370.488 337.587 373.522 335.693 376.813C330.084 386.535 328.45 398.499 332.169 410.023Z" fill="#FAD332"/>
<path d="M345.906 365.018L402.568 424.098C409.307 416.185 412.928 405.863 412.365 395.222L375.153 356.423C369.751 355.911 364.151 356.467 358.657 358.242C353.902 359.779 349.618 362.097 345.906 365.018Z" fill="#FAEE6C"/>
<path d="M335.693 376.815L390.37 433.828C393.814 432.033 396.917 429.79 399.64 427.195L342.699 367.82C339.944 370.49 337.591 373.524 335.693 376.815Z" fill="#FAEE6C"/>
<path d="M368.536 358.284C373.393 357.775 374.28 358.253 376.462 362.563C375.919 357.765 376.397 356.876 380.741 354.637C375.884 355.145 374.992 354.667 372.815 350.358C373.324 355.217 372.845 356.102 368.536 358.284Z" fill="white"/>
<path d="M385.727 435.542C389.829 435.111 390.573 435.515 392.415 439.153C391.958 435.101 392.363 434.355 396.026 432.462C391.928 432.892 391.18 432.488 389.337 428.851C389.765 432.953 389.363 433.7 385.727 435.542Z" fill="white"/>
<path d="M338.852 123.947C367.648 123.947 391.081 147.383 391.081 176.19C391.081 204.997 367.648 228.434 338.852 228.434C310.056 228.434 286.623 204.997 286.623 176.19C286.623 147.383 310.056 123.947 338.852 123.947ZM338.852 231.148C369.144 231.148 393.793 206.494 393.793 176.19C393.793 145.886 369.144 121.233 338.852 121.233C308.556 121.233 283.911 145.886 283.911 176.19C283.911 206.494 308.556 231.148 338.852 231.148Z" fill="#E3EAFF"/>
<path d="M338.851 207.382C342.881 207.382 346.144 204.115 346.144 200.087V99.2486C346.144 95.2174 342.881 91.9526 338.851 91.9526C334.825 91.9526 331.557 95.2174 331.557 99.2486V200.087C331.557 204.115 334.825 207.382 338.851 207.382Z" fill="#E3EAFF"/>
<path d="M338.852 123.947C367.648 123.947 391.081 147.383 391.081 176.19C391.081 204.997 367.648 228.434 338.852 228.434C310.056 228.434 286.623 204.997 286.623 176.19C286.623 147.383 310.056 123.947 338.852 123.947ZM338.852 231.148C369.144 231.148 393.793 206.494 393.793 176.19C393.793 145.886 369.144 121.233 338.852 121.233C308.556 121.233 283.911 145.886 283.911 176.19C283.911 206.494 308.556 231.148 338.852 231.148Z" fill="#E3EAFF"/>
<path d="M338.851 207.382C342.881 207.382 346.144 204.115 346.144 200.087V99.2486C346.144 95.2174 342.881 91.9526 338.851 91.9526C334.825 91.9526 331.557 95.2174 331.557 99.2486V200.087C331.557 204.115 334.825 207.382 338.851 207.382Z" fill="#E3EAFF"/>
<path d="M338.35 213.37C338.439 213.37 338.537 213.367 338.63 213.363C340.861 213.278 342.932 212.172 344.242 210.367L374.529 171.55C376.9 168.293 376.183 163.73 372.929 161.358C369.671 158.986 365.111 159.704 362.739 162.961L337.892 194.307L314.605 162.517C311.992 159.453 307.389 159.092 304.326 161.709C301.263 164.326 300.903 168.931 303.516 171.995L332.801 210.812C334.192 212.437 336.22 213.37 338.35 213.37Z" fill="#E3EAFF"/>
<path d="M281.54 264.837L304.593 252.435C305.243 253.647 305.892 254.854 306.542 256.063C307.484 257.817 303.058 262.028 296.66 265.472C290.258 268.916 284.305 270.287 283.363 268.533C283.271 268.373 281.54 264.837 281.54 264.837Z" fill="#FABA23"/>
<path d="M281.517 265.102C282.46 266.852 288.413 265.482 294.815 262.041C301.217 258.597 305.636 254.383 304.697 252.632C303.754 250.877 297.802 252.248 291.4 255.692C285.002 259.136 280.574 263.348 281.517 265.102Z" fill="#FAD332"/>
<path d="M383.97 311.438L407.297 315.228C407.103 316.45 406.901 317.675 406.706 318.9C406.415 320.671 400.93 321.258 394.454 320.206C387.974 319.151 382.956 316.86 383.244 315.085C383.267 314.923 383.97 311.438 383.97 311.438Z" fill="#FABA23"/>
<path d="M383.808 311.612C383.521 313.387 388.537 315.677 395.018 316.732C401.496 317.784 406.979 317.197 407.267 315.426C407.558 313.651 402.538 311.361 396.061 310.306C389.583 309.254 384.096 309.841 383.808 311.612Z" fill="#FAD332"/>
<path d="M356.096 270.495L377.302 260.05C377.848 261.163 378.395 262.273 378.941 263.386C379.737 264.998 375.603 268.656 369.72 271.557C363.83 274.458 358.411 275.503 357.619 273.891C357.549 273.742 356.096 270.495 356.096 270.495Z" fill="#FABA23"/>
<path d="M356.065 270.732C356.858 272.344 362.276 271.302 368.163 268.401C374.049 265.499 378.181 261.842 377.384 260.23C376.59 258.615 371.176 259.66 365.29 262.561C359.399 265.462 355.271 269.12 356.065 270.732Z" fill="#FAD332"/>
<path d="M387.702 231.091L412.122 235.058C411.914 236.337 411.706 237.62 411.498 238.899C411.197 240.755 405.455 241.37 398.673 240.267C391.894 239.167 386.639 236.768 386.94 234.909C386.97 234.739 387.702 231.091 387.702 231.091Z" fill="#FABA23"/>
<path d="M387.531 231.276C387.23 233.131 392.483 235.531 399.267 236.63C406.046 237.733 411.786 237.122 412.087 235.266C412.391 233.406 407.138 231.007 400.358 229.908C393.575 228.805 387.835 229.416 387.531 231.276Z" fill="#FAD332"/>
<path d="M201.357 222.661C198.401 213.393 199.125 204.401 205.626 198.347C212.215 192.212 222.78 194.137 222.78 194.137C222.78 194.137 230.172 189.318 239.434 195.63C248.701 201.941 244.868 210.377 249.274 215.541C251.888 218.602 261.086 217.149 261.483 229.067C261.595 232.504 258.188 235.653 254.908 236.674C249.142 238.469 242.748 237.299 241.309 240.352C236.345 250.845 217.282 251.167 213.209 244.923C211.946 242.986 197.333 250.834 195.419 236.037C194.455 228.537 204.006 230.943 201.357 222.661Z" fill="#020205"/>
<path d="M239.114 219.018C240.316 230.426 234.026 240.44 225.065 241.383C216.11 242.326 207.873 233.84 206.676 222.432C205.474 211.021 211.765 201.007 220.72 200.064C229.681 199.121 237.912 207.607 239.114 219.018Z" fill="#F37A50"/>
<path d="M211.519 223.826C211.418 224.684 210.633 225.295 209.772 225.19C208.916 225.085 208.305 224.301 208.411 223.442C208.517 222.584 209.296 221.973 210.157 222.079C211.014 222.184 211.624 222.967 211.519 223.826Z" fill="black"/>
<path d="M224.133 222.586C224.019 223.515 223.172 224.177 222.244 224.061C221.316 223.95 220.653 223.101 220.767 222.172C220.88 221.242 221.723 220.58 222.656 220.695C223.589 220.811 224.247 221.656 224.133 222.586Z" fill="black"/>
<path d="M225.427 220.632C225.3 220.615 225.176 220.557 225.082 220.459C223.666 219.01 221.384 219.441 221.36 219.444C221.038 219.509 220.73 219.302 220.669 218.983C220.602 218.664 220.811 218.352 221.128 218.287C221.246 218.264 224.054 217.721 225.92 219.635C226.152 219.865 226.147 220.239 225.915 220.466C225.778 220.598 225.598 220.653 225.427 220.632Z" fill="#020205"/>
<path d="M207.541 222.821C207.474 222.813 207.416 222.797 207.353 222.766C207.059 222.624 206.939 222.271 207.083 221.979C208.182 219.702 210.519 219.658 210.62 219.658C210.943 219.655 211.208 219.916 211.213 220.241C211.218 220.567 210.953 220.832 210.63 220.835C210.553 220.839 208.915 220.893 208.144 222.495C208.028 222.725 207.782 222.851 207.541 222.821Z" fill="#020205"/>
<path d="M213.607 226.699C213.089 227.822 212.682 228.931 212.084 229.691C211.878 229.95 211.916 230.326 212.165 230.54C213.18 231.429 215.326 231.697 216.619 231.775C216.805 231.789 216.863 231.527 216.686 231.456C215.211 230.865 214.468 230.306 214.119 229.98C213.947 229.814 213.87 229.58 213.899 229.346C213.966 228.806 214.1 227.71 214.138 226.827C214.152 226.522 213.736 226.424 213.607 226.699Z" fill="#DE623C"/>
<path d="M225.7 231.862C225.823 231.465 225.414 231.115 225.042 231.298C224.1 231.764 222.523 232.503 220.966 233.053C219.409 233.602 217.723 234.02 216.695 234.251C216.29 234.342 216.195 234.868 216.537 235.102C217.595 235.811 219.59 236.755 221.98 235.913C224.362 235.069 225.328 233.08 225.7 231.862Z" fill="white"/>
<path d="M238.987 218.014C228.666 220.178 211.324 215.011 208.365 210.257C208.086 203.389 217.142 196.68 223.892 197.522C230.643 198.363 240.411 208.743 238.987 218.014Z" fill="#020205"/>
<path d="M208.599 248.856C197.973 251.51 179.814 276.348 178.11 294.97C183.94 296.175 190.604 291.526 190.604 291.526L205.037 270.756L208.599 248.856Z" fill="#DE623C"/>
<path d="M198.322 461.914L192.63 439.491L206.751 437.546C207.237 448.151 208.032 458.591 207.958 461.418L198.322 461.914Z" fill="#F37A50"/>
<path d="M232.016 437.42H246.757C246.277 440.956 244.341 460.091 244.341 460.091C243.095 462.92 232.109 462.276 232.109 460.685C232.939 457.237 232.086 437.861 232.016 437.42Z" fill="#F37A50"/>
<path d="M207.907 446.184L193.368 448.332L183.286 388.02C185.361 365.129 205.504 316.436 205.504 316.436L228.21 324.39L228.76 345.866L201.419 392.174C204.983 401.128 207.421 430.083 207.907 446.184Z" fill="#645357"/>
<path d="M219.146 318.051C219.355 316.636 219.426 316.195 220.604 315.49L242.404 309.3L247.595 314.427C252.511 332.279 249.466 357.111 245.591 376.819C251.266 393.873 249.043 429.034 246.759 445.559H231.252C230.354 434.514 230.635 414.023 230.568 404.124C228.559 396.171 226.621 387.687 224.892 378.763C222.679 367.362 219.91 356.317 219.146 345.974C218.457 336.168 218.248 325.649 219.146 318.051Z" fill="#612E3A"/>
<path d="M246.649 246.137C251.772 249.499 273.38 277.615 261.473 300.775C260.924 301.08 251.389 284.918 251.389 284.918L240.132 262.628L246.649 246.137Z" fill="#F37A50"/>
<path d="M235.799 231.506L222.266 239.195C222.266 239.195 221.066 244.678 220.464 246.456C219.226 250.128 223.969 251.729 227.973 249.446C231.981 247.162 234.575 244.105 234.575 244.105L235.799 231.506Z" fill="#F37A50"/>
<path d="M202.136 319.998C202.136 319.998 207.722 326.615 208.667 327.11L213.67 321.647L213.704 321.739L214.892 324.864L216.279 328.519C217.438 328.519 252.321 320.701 252.321 320.701C252.248 317.555 249.296 307.368 244.506 296.52C245.669 287.331 244.554 277.783 244.918 272.486C242.101 258.281 244.113 252.825 246.653 246.134L237.8 243.518L221.874 249.137L220.686 245.296C220.686 245.296 210.698 247.691 208.599 248.852L204.827 264.607L205.642 298.077C205.642 298.077 204.391 311.552 202.136 319.998Z" fill="#3F964F"/>
<path d="M234.722 241.749L240.962 244.399C240.305 251.898 223.533 256.377 223.533 256.377L221.869 249.143L234.722 241.749Z" fill="#0E6A41"/>
<path d="M221.872 249.144L216.935 254.63C216.935 254.63 212.663 250.213 214.208 247.484C215.758 244.753 221.412 242.91 221.412 242.91L221.872 249.144Z" fill="#0E6A41"/>
<path d="M201.759 461.552C200.281 457.674 197.125 457.243 197.125 457.243C190.989 465.431 175.921 460.405 176.422 471.481C199.334 471.338 208.861 471.481 208.861 471.481C208.826 468.936 208.376 462.899 207.845 460.538L206.652 460.748L201.759 461.552Z" fill="black"/>
<path d="M177.75 474.437H207.521C208.262 474.437 208.863 473.836 208.863 473.1V471.176H176.408V473.1C176.408 473.836 177.009 474.437 177.75 474.437Z" fill="black"/>
<path d="M213.702 321.742L214.891 324.867C215.966 317.677 219.979 287.576 217.71 279.266C215.589 271.458 218.245 263.229 220.815 255.272C221.441 253.324 222.095 251.316 222.65 249.364L221.871 249.14L221.087 248.92C220.538 250.841 219.898 252.839 219.272 254.773C216.63 262.957 213.902 271.42 216.152 279.693C218.102 286.867 215.111 311.576 213.702 321.742Z" fill="#0E6A41"/>
<path d="M229.481 471.585C229.481 471.585 231.321 464.72 231.485 463.838C231.667 462.837 232.21 460.465 232.318 459.25C232.346 458.952 235.505 457.018 237.916 457.021C241.183 457.028 244.159 458.921 244.22 459.278C244.609 461.568 244.618 464.263 245.241 466.495C245.704 468.154 246.968 472.019 246.968 472.019L229.481 471.585Z" fill="black"/>
<path d="M229.48 471.053C229.911 472.418 235.2 470.843 239.059 470.846C242.3 470.846 246.492 472.102 246.97 471.613C247.781 473.045 247.115 476.011 247.115 476.011C247.115 476.011 243.735 476.187 239.683 476.011C235.636 475.838 230.952 476.096 229.189 475.573C228.077 473.71 229.48 471.053 229.48 471.053Z" fill="black"/>
<path d="M222.709 277.643C222.709 277.643 250.626 305.638 261.472 300.772C265.047 295.936 257.454 286.232 250.342 282.981C243.259 279.744 231.369 274.64 231.369 274.64L222.709 277.643Z" fill="#F37A50"/>
<path d="M217.425 268.137L205.826 259.182C205.577 258.989 205.254 258.911 204.942 258.965L197.04 260.397C196.81 260.435 196.351 261.815 196.537 261.951L204.419 266.695C204.458 266.722 204.502 266.739 204.551 266.746L216.951 268.874C217.215 268.904 217.635 268.297 217.425 268.137Z" fill="#F9CD2D"/>
<path d="M216.829 268.994L205.798 260.572C205.544 260.378 205.222 260.301 204.909 260.355L196.745 261.732C196.525 261.77 196.452 262.062 196.632 262.197L204.392 268.084C204.431 268.112 204.475 268.129 204.524 268.136L216.644 269.462C216.902 269.493 217.039 269.157 216.829 268.994Z" fill="#F9F93A"/>
<path d="M231.674 274.791L225.157 271.527C225.157 271.527 221.023 267.027 219.734 265.684C218.08 265.202 214.865 263.817 214.213 263.865C213.557 263.913 212.453 264.299 212.453 264.299L216.222 267.251C216.222 267.251 214.685 267.961 212.53 267.099C210.371 266.237 206.353 263.59 204.802 264.54C204.31 265.175 204.31 265.175 204.31 265.175C204.31 265.175 202.949 264.119 202.131 264.849C199.602 267.105 215.916 276.83 215.916 276.83L222.71 277.645L231.674 274.791Z" fill="#F37A50"/>
<path d="M204.598 262.381C205.058 262.697 205.628 262.663 205.87 262.307C206.112 261.951 205.938 261.408 205.479 261.096C205.019 260.78 204.448 260.814 204.206 261.17C203.965 261.523 204.139 262.066 204.598 262.381Z" fill="#F9CD2D"/>
<path d="M178.111 294.971C178.111 294.971 192.584 311.523 202.655 313.86C203.254 310.546 203.809 308.004 203.809 308.004L190.076 289.921L178.111 294.971Z" fill="#DE623C"/>
<path d="M204.484 314.77C204.435 314.627 204.357 314.502 204.275 314.386L204.348 314.366C205.776 313.891 206.66 312.673 206.315 311.648C206.262 311.479 206.174 311.329 206.067 311.193C206.82 310.606 207.204 309.778 206.961 309.045C206.864 308.754 206.675 308.513 206.432 308.323C207.224 307.783 207.632 306.884 207.36 306.066C207.02 305.041 205.752 304.536 204.532 304.943C203.313 305.347 202.599 306.507 202.943 307.532C203.026 307.793 203.172 308.021 203.361 308.204C202.171 308.757 201.476 309.836 201.787 310.766C201.841 310.932 201.928 311.085 202.04 311.22C201.277 311.808 200.898 312.635 201.146 313.369C201.233 313.636 201.399 313.867 201.622 314.05C200.893 314.495 200.51 315.289 200.752 316.008C201.039 316.877 202.108 317.301 203.138 316.958C204.168 316.616 204.77 315.635 204.484 314.77Z" fill="#DE623C"/>
<path d="M235.73 219.712C234.05 222.335 234.427 225.575 236.572 226.95C238.717 228.324 241.82 227.313 243.499 224.69C245.179 222.067 244.802 218.826 242.657 217.452C240.508 216.077 237.409 217.089 235.73 219.712Z" fill="#F37A50"/>
<path d="M239.223 225.392C239.126 225.382 239.024 225.345 238.931 225.284C237.62 224.415 237.069 223.116 237.448 221.806C237.838 220.466 239.089 219.471 240.428 219.444C240.803 219.434 241.114 219.732 241.123 220.109C241.128 220.486 240.831 220.798 240.456 220.805C239.724 220.822 238.978 221.426 238.76 222.186C238.542 222.915 238.871 223.611 239.682 224.15C239.997 224.358 240.085 224.782 239.872 225.094C239.728 225.318 239.474 225.423 239.223 225.392Z" fill="#DE623C"/>
<path d="M103.424 251.255C109.376 263.762 124.337 269.076 136.844 263.125C149.346 257.173 154.655 242.205 148.709 229.698C142.757 217.19 127.796 211.873 115.289 217.825C102.787 223.78 97.4725 238.744 103.424 251.255Z" fill="white"/>
<path d="M135.863 257.317L133.808 253.004C136.262 251.783 138.462 249.795 139.449 248.013L137.06 245.641C136.014 247.399 134.18 249.265 131.786 250.402C128.755 251.847 125.87 251.07 124.716 248.637C123.599 246.286 124.57 244.043 127.121 241.257C130.664 237.474 132.422 234.23 130.648 230.514C128.965 226.968 125.163 225.475 120.93 226.707L118.881 222.391L116.233 223.653L118.206 227.796C115.683 229.099 114.253 230.616 113.364 231.933L115.774 234.243C116.427 233.304 117.732 231.532 120.461 230.229C123.75 228.665 125.924 230.039 126.738 231.749C127.79 233.969 126.738 235.832 123.756 239.14C120.213 243.025 119.048 246.303 120.854 250.107C122.461 253.48 126.317 255.523 131.058 254.155L133.172 258.596L135.863 257.317Z" fill="#E3EAFF"/>
<path d="M111.68 345.677C114.548 350.774 121.698 352.193 127.645 348.84C133.592 345.487 136.08 338.64 133.212 333.54C130.339 328.443 123.189 327.028 117.242 330.381C111.301 333.73 108.807 340.581 111.68 345.677Z" fill="#E3EAFF"/>
<path d="M517.89 455.786C522.374 474.621 538.406 464.263 535.054 476.17C534.807 477.049 533.971 477.632 533.06 477.67L523.648 478.028C522.74 478.063 521.845 477.806 521.095 477.29C516.13 473.89 512.76 469.099 502.034 468.519C502.121 463.938 501.907 457.395 503.42 455.058L517.89 455.786Z" fill="black"/>
<path d="M493.083 323.59C493.083 323.59 520.459 365.358 524.238 378.347C528.016 391.339 520.112 413.353 521.542 457.72C512.986 459.943 501.578 458.031 501.578 458.031C501.578 458.031 494.712 402.38 502.788 389.241C490.687 370.768 460.292 330.446 460.292 330.446L493.083 323.59Z" fill="#201D40"/>
<path d="M477.901 461.858C484.867 471.342 502.255 465.735 501.558 478.467C475.205 478.046 464.25 478.101 464.25 478.101C464.311 475.176 464.902 468.242 465.536 465.528L477.901 461.858Z" fill="black"/>
<path d="M486.067 315.15C486.067 315.15 494.797 383.287 492.782 396.666C490.767 410.046 484.523 420.52 484.304 464.907C475.671 466.81 462.478 468.52 462.478 468.52C462.478 468.52 456.916 414.981 468.358 400.241C465.115 378.395 449.661 323.451 449.661 323.451L486.067 315.15Z" fill="#2C2858"/>
<path d="M530.787 285.151L541.431 273.214C541.662 272.956 541.991 272.804 542.337 272.801L551.1 272.747C551.35 272.747 552.122 274.135 551.954 274.318L544.447 280.99C544.413 281.025 544.37 281.06 544.32 281.068L531.447 285.845C531.17 285.923 530.595 285.365 530.787 285.151Z" fill="#C4204A"/>
<path d="M531.601 285.949L541.74 274.696C541.971 274.439 542.299 274.29 542.646 274.283L551.68 274.121C551.93 274.121 552.064 274.412 551.896 274.595L544.758 282.469C544.723 282.504 544.679 282.53 544.628 282.547L531.895 286.41C531.62 286.497 531.408 286.164 531.601 285.946" fill="#E62552"/>
<path d="M511.569 296.217L518.901 292.618C518.901 292.618 526.134 285.296 527.208 283.66C528.816 282.846 531.861 280.796 532.546 280.718C533.23 280.64 534.632 280.85 534.632 280.85L531.236 284.713C531.236 284.713 532.849 285.034 534.906 283.724C536.963 282.418 540.597 278.912 542.376 279.591C543.008 280.151 543.008 280.153 543.008 280.153C543.008 280.153 544.132 278.95 545.191 279.398C546.251 279.842 544.144 285.13 538.165 290.732C537.769 292.228 535.798 294.849 535.798 294.849L523.709 299.098L511.569 296.217Z" fill="#F37A50"/>
<path d="M543.391 276.392C542.961 276.823 542.344 276.9 542.012 276.568C541.68 276.236 541.759 275.618 542.189 275.19C542.618 274.76 543.235 274.682 543.567 275.014C543.899 275.344 543.82 275.962 543.391 276.392Z" fill="#C4204A"/>
<path d="M477.427 242.281C479.602 245.1 462.562 248.168 460.278 242.308C457.993 236.444 461.916 220.319 461.916 220.319L477.452 223.62C477.452 223.62 474.595 238.609 477.427 242.281Z" fill="#F37A50"/>
<path d="M458.517 207.161C457.209 219.628 464.085 230.572 473.875 231.6C483.666 232.628 492.664 223.352 493.972 210.881C495.28 198.415 488.402 187.469 478.612 186.441C468.822 185.413 459.825 194.691 458.517 207.161Z" fill="#F37A50"/>
<path d="M488.188 214.555C488.534 215.521 489.596 216.022 490.561 215.672C491.525 215.326 492.027 214.266 491.681 213.302C491.334 212.335 490.271 211.836 489.307 212.182C488.342 212.528 487.842 213.591 488.188 214.555Z" fill="black"/>
<path d="M476.019 211.896C476.395 212.941 477.544 213.484 478.588 213.108C479.632 212.735 480.176 211.584 479.801 210.538C479.426 209.493 478.275 208.95 477.231 209.323C476.187 209.7 475.645 210.851 476.019 211.896Z" fill="black"/>
<path d="M484.644 214.164C485.038 217.089 485.584 220.685 485.584 220.685C485.584 220.685 483.664 222.709 480.48 221.311C482.072 221.363 483.807 221.062 484.069 219.026C484.332 216.99 484.644 214.164 484.644 214.164Z" fill="#DE623C"/>
<path d="M488.73 210.313C488.939 210.438 489.207 210.455 489.436 210.33C489.462 210.322 490.231 209.924 490.955 210.202C491.465 210.395 491.876 210.897 492.17 211.691C492.307 212.061 492.717 212.246 493.086 212.111C493.454 211.975 493.641 211.564 493.504 211.194C493.057 209.99 492.364 209.207 491.444 208.864C490.097 208.358 488.81 209.051 488.755 209.078C488.41 209.268 488.285 209.7 488.473 210.046C488.533 210.161 488.625 210.252 488.73 210.313Z" fill="#020205"/>
<path d="M479.474 208.283C479.237 208.335 478.979 208.257 478.803 208.07C478.785 208.053 478.187 207.424 477.412 207.447C476.866 207.465 476.314 207.801 475.774 208.453C475.523 208.754 475.074 208.801 474.772 208.551C474.469 208.3 474.427 207.85 474.677 207.549C475.496 206.557 476.408 206.045 477.39 206.022C478.827 205.996 479.815 207.068 479.857 207.112C480.12 207.403 480.097 207.853 479.804 208.118C479.707 208.206 479.593 208.26 479.473 208.283" fill="#020205"/>
<path d="M462.157 215.083C468.606 209.681 466.826 201.43 466.826 201.43C469.953 201.633 470.829 202.974 470.829 202.974C473.345 200.082 472.731 197.36 472.731 197.36C479.51 196.625 481.494 201.42 486.668 204.25C493.754 208.125 503.93 207.626 507.3 198.606C507.787 197.3 506.546 196.032 505.227 196.48C504.003 196.894 502.475 197.084 500.775 196.575C500.775 196.575 502.844 195.213 503.592 192.756C504.005 191.402 502.603 190.232 501.316 190.826C499.387 191.712 496.13 192.162 491.182 189.784C487.888 188.198 481.443 180.498 476.204 180.25C471.921 180.05 467.786 182.627 465.078 187.184C465.078 187.184 454.86 185.534 450.917 196.209C447.043 206.694 461.566 222.897 461.566 222.897C461.566 222.897 460.452 216.743 462.157 215.083Z" fill="#020205"/>
<path d="M483.857 226.079C484.26 225.817 484.16 225.206 483.693 225.09C482.506 224.802 480.556 224.283 478.762 223.607C476.967 222.936 475.157 222.045 474.071 221.481C473.644 221.261 473.165 221.657 473.297 222.118C473.705 223.54 474.776 225.874 477.526 226.901C480.277 227.933 482.614 226.882 483.857 226.079Z" fill="white"/>
<path d="M466.748 207.734C468.846 209.803 469.174 212.875 467.481 214.593C465.786 216.313 462.713 216.023 460.615 213.953C458.517 211.882 458.189 208.811 459.883 207.091C461.576 205.374 464.649 205.664 466.748 207.734Z" fill="#F37A50"/>
<path d="M464.711 213.712C464.802 213.677 464.887 213.624 464.959 213.549C465.985 212.474 466.225 211.158 465.601 210.029C464.96 208.872 463.597 208.213 462.358 208.468C462.01 208.537 461.784 208.879 461.856 209.23C461.925 209.579 462.267 209.802 462.616 209.731C463.295 209.592 464.111 209.996 464.472 210.651C464.82 211.279 464.661 211.994 464.025 212.659C463.78 212.916 463.789 213.325 464.042 213.573C464.225 213.746 464.484 213.79 464.706 213.712" fill="#DE623C"/>
<path d="M496.364 328.595C484.209 331.075 462.358 335.359 450.801 330.849C446.428 324.569 445.32 289.052 445.32 289.052C444.055 252.493 448.437 247.07 458.321 234.82C462.47 236.723 472.85 238.351 477.414 238.388C477.414 238.388 487.756 252.75 489.774 263.18C491.82 273.754 492.053 292.559 492.243 303.329C492.455 315.29 494.815 321.061 496.364 328.595Z" fill="#3F964F"/>
<path d="M456.882 245.919C449.773 259.763 451.383 275.094 472.054 305.276C486.53 304.014 489.369 291.944 489.369 291.944C489.369 291.944 485.392 276.956 480.224 258.106C475.058 239.257 459.993 239.861 456.882 245.919Z" fill="#0E6A41"/>
<path d="M520.08 289.051L489.084 291.522C489.084 291.522 475.793 289.099 472.054 305.274C478.707 310.456 495.88 312.4 524.049 301.939C521.068 297.88 520.08 289.051 520.08 289.051Z" fill="#0E6A41"/>
<path d="M477.322 237.363L477.616 245.698L456.646 236.905L459.185 230.158L477.322 237.363Z" fill="white"/>
</g>
<defs>
<clipPath id="clip0_23_375">
<rect width="648" height="515" fill="white"/>
</clipPath>
</defs>
</svg>
