<svg width="69" height="49" viewBox="0 0 69 49" fill="none" xmlns="http://www.w3.org/2000/svg">
<path d="M65.55 0.238037H3.45C1.54495 0.238037 0 1.77739 0 3.67554V44.9255C0 46.8237 1.54495 48.363 3.45 48.363H65.55C67.455 48.363 69 46.8237 69 44.9255V3.67554C69 1.77739 67.455 0.238037 65.55 0.238037ZM18.975 32.022V33.7537C18.975 34.2285 18.589 34.613 18.1125 34.613H16.3875C15.911 34.613 15.525 34.2285 15.525 33.7537V32.0038C14.3078 31.9415 13.124 31.5182 12.1429 30.7845C11.7225 30.4698 11.7009 29.8424 12.0815 29.4804L13.3483 28.2762C13.6469 27.9926 14.0911 27.9797 14.4404 28.1978C14.8576 28.4578 15.3309 28.5974 15.8226 28.5974H18.8532C19.554 28.5974 20.1254 27.9615 20.1254 27.1805C20.1254 26.5414 19.7362 25.9785 19.1798 25.813L14.3283 24.3628C12.324 23.7634 10.9236 21.847 10.9236 19.7018C10.9236 17.0678 12.9774 14.928 15.5239 14.8603V13.1287C15.5239 12.6539 15.9099 12.2693 16.3864 12.2693H18.1114C18.588 12.2693 18.9739 12.6539 18.9739 13.1287V14.8786C20.1911 14.9409 21.3749 15.363 22.356 16.0978C22.7765 16.4125 22.798 17.0399 22.4175 17.4019L21.1507 18.6061C20.852 18.8897 20.4078 18.9026 20.0585 18.6845C19.6413 18.4235 19.168 18.2849 18.6764 18.2849H15.6458C14.945 18.2849 14.3736 18.9209 14.3736 19.7018C14.3736 20.341 14.7628 20.9039 15.3191 21.0693L20.1706 22.5195C22.1749 23.1189 23.5754 25.0353 23.5754 27.1805C23.5754 29.8156 21.5215 31.9543 18.975 32.022ZM44.85 30.3162C44.85 30.791 44.464 31.1755 43.9875 31.1755H31.9125C31.436 31.1755 31.05 30.791 31.05 30.3162V28.5974C31.05 28.1226 31.436 27.738 31.9125 27.738H43.9875C44.464 27.738 44.85 28.1226 44.85 28.5974V30.3162ZM62.1 30.3162C62.1 30.791 61.714 31.1755 61.2375 31.1755H52.6125C52.136 31.1755 51.75 30.791 51.75 30.3162V28.5974C51.75 28.1226 52.136 27.738 52.6125 27.738H61.2375C61.714 27.738 62.1 28.1226 62.1 28.5974V30.3162ZM62.1 20.0037C62.1 20.4785 61.714 20.863 61.2375 20.863H31.9125C31.436 20.863 31.05 20.4785 31.05 20.0037V18.2849C31.05 17.8101 31.436 17.4255 31.9125 17.4255H61.2375C61.714 17.4255 62.1 17.8101 62.1 18.2849V20.0037Z" fill="black"/>
</svg>
