<svg width="43" height="49" viewBox="0 0 43 49" fill="none" xmlns="http://www.w3.org/2000/svg">
<path d="M38.3929 21.4375H36.0893V14.5469C36.0893 6.52695 29.5433 0 21.5 0C13.4567 0 6.91071 6.52695 6.91071 14.5469V21.4375H4.60714C2.06362 21.4375 0 23.4951 0 26.0312V44.4062C0 46.9424 2.06362 49 4.60714 49H38.3929C40.9364 49 43 46.9424 43 44.4062V26.0312C43 23.4951 40.9364 21.4375 38.3929 21.4375ZM28.4107 21.4375H14.5893V14.5469C14.5893 10.7475 17.6895 7.65625 21.5 7.65625C25.3105 7.65625 28.4107 10.7475 28.4107 14.5469V21.4375Z" fill="black"/>
</svg>
