<svg width="59" height="47" viewBox="0 0 59 47" fill="none" xmlns="http://www.w3.org/2000/svg">
<path d="M2.95 20.5623H5.9V38.1873H2.95C2.56247 38.1877 2.17866 38.1121 1.82054 37.9646C1.46242 37.8171 1.13703 37.6008 0.863 37.3279C0.588974 37.0551 0.371697 36.731 0.22361 36.3744C0.0755235 36.0178 -0.000463023 35.6356 2.12265e-06 35.2498V23.4998C-0.000463023 23.1139 0.0755235 22.7317 0.22361 22.3751C0.371697 22.0185 0.588974 21.6945 0.863 21.4216C1.13703 21.1487 1.46242 20.9324 1.82054 20.7849C2.17866 20.6375 2.56247 20.5618 2.95 20.5623ZM50.15 16.156V41.1248C50.1485 42.6824 49.5264 44.1759 48.4202 45.2773C47.3141 46.3788 45.8143 46.9982 44.25 46.9998H14.75C13.1857 46.9982 11.6859 46.3788 10.5798 45.2773C9.47365 44.1759 8.85155 42.6824 8.85 41.1248V16.156C8.84969 15.1915 9.04023 14.2364 9.41075 13.3453C9.78127 12.4542 10.3245 11.6445 11.0094 10.9625C11.6943 10.2805 12.5074 9.73957 13.4023 9.37063C14.2973 9.00168 15.2564 8.81194 16.225 8.81226H26.55V2.93726C26.55 2.15818 26.8608 1.41102 27.414 0.86013C27.9673 0.309242 28.7176 -0.000244141 29.5 -0.000244141C30.2824 -0.000244141 31.0327 0.309242 31.586 0.86013C32.1392 1.41102 32.45 2.15818 32.45 2.93726V8.81226H42.775C43.7436 8.81194 44.7027 9.00168 45.5977 9.37063C46.4926 9.73957 47.3057 10.2805 47.9906 10.9625C48.6755 11.6445 49.2187 12.4542 49.5893 13.3453C49.9598 14.2364 50.1503 15.1915 50.15 16.156ZM24.3375 23.4998C24.3375 22.7735 24.1212 22.0636 23.716 21.4598C23.3109 20.8559 22.735 20.3853 22.0611 20.1074C21.3873 19.8295 20.6459 19.7568 19.9306 19.8984C19.2153 20.0401 18.5583 20.3898 18.0425 20.9033C17.5268 21.4169 17.1756 22.0711 17.0334 22.7834C16.8911 23.4957 16.9641 24.234 17.2432 24.9049C17.5223 25.5759 17.9949 26.1493 18.6013 26.5528C19.2077 26.9563 19.9207 27.1716 20.65 27.1716C21.1343 27.1717 21.6138 27.0767 22.0612 26.8922C22.5086 26.7077 22.9151 26.4372 23.2575 26.0962C23.6 25.7553 23.8716 25.3505 24.0569 24.905C24.2422 24.4595 24.3375 23.982 24.3375 23.4998ZM23.6 35.2498H17.7V38.1873H23.6V35.2498ZM32.45 35.2498H26.55V38.1873H32.45V35.2498ZM42.0375 23.4998C42.0375 22.7735 41.8212 22.0636 41.416 21.4598C41.0109 20.8559 40.435 20.3853 39.7612 20.1074C39.0873 19.8295 38.3459 19.7568 37.6306 19.8984C36.9153 20.0401 36.2583 20.3898 35.7425 20.9033C35.2268 21.4169 34.8756 22.0711 34.7334 22.7834C34.5911 23.4957 34.6641 24.234 34.9432 24.9049C35.2223 25.5759 35.6949 26.1493 36.3013 26.5528C36.9077 26.9563 37.6207 27.1716 38.35 27.1716C38.8343 27.1717 39.3138 27.0767 39.7612 26.8922C40.2086 26.7077 40.6151 26.4372 40.9575 26.0962C41.3 25.7553 41.5716 25.3505 41.7569 24.905C41.9422 24.4595 42.0375 23.982 42.0375 23.4998ZM41.3 35.2498H35.4V38.1873H41.3V35.2498ZM59 23.4998V35.2498C59.0005 35.6356 58.9245 36.0178 58.7764 36.3744C58.6283 36.731 58.411 37.0551 58.137 37.3279C57.863 37.6008 57.5376 37.8171 57.1795 37.9646C56.8213 38.1121 56.4375 38.1877 56.05 38.1873H53.1V20.5623H56.05C56.4375 20.5618 56.8213 20.6375 57.1795 20.7849C57.5376 20.9324 57.863 21.1487 58.137 21.4216C58.411 21.6945 58.6283 22.0185 58.7764 22.3751C58.9245 22.7317 59.0005 23.1139 59 23.4998Z" fill="black"/>
</svg>
